<svg xmlns="http://www.w3.org/2000/svg" viewBox="0 0 1942.3 600">
  <path d="M 1788.8 1.9 C 1764 11.9, 1752.6 38.7, 1763.8 60.9 C 1780.7 94.2, 1826.1 93.4, 1841.6 59.5 C 1848.5 44.6, 1844.3 22.7, 1832.6 11.9 C 1821.6 1.9, 1800.7 -2.9, 1788.8 1.9 M 1776.4 145.7 C 1710.7 155.4, 1659.4 205, 1645.1 272.8 C 1642.1 286.7, 1642.1 343.1, 1645 355 C 1650.5 377.2, 1657.4 393.3, 1669.5 411.7 C 1673.5 417.7, 1676.8 423.1, 1676.8 423.7 C 1676.8 424.3, 1638.3 424.7, 1591.2 424.7 L 1505.7 424.7, 1507 414.4 C 1507.7 408.7, 1508.2 391.7, 1508.1 376.6 C 1508 352.9, 1507.4 346.9, 1503.6 332.4 C 1468.6 195.7, 1332.5 118.7, 1202.2 161.8 C 1129.1 186, 1067.3 254.8, 1046.8 334.8 C 1041.4 355.7, 1039.7 391.3, 1043.1 410.2 C 1044.4 417.3, 1045 423.5, 1044.6 423.9 C 1044.2 424.4, 989.9 424.7, 924.1 424.7 C 794 424.7, 793.6 424.7, 777.8 415.5 C 766.9 409, 755 395, 749.5 382.1 L 744.7 370.8, 743.9 280.3 L 743 189.8, 715.3 189.4 C 687.6 188.9, 687.5 188.9, 686.7 192.7 C 686.2 194.8, 685.6 234.6, 685.4 281.1 L 684.9 365.8, 680.4 376.6 C 670.4 400.2, 651.5 416.9, 629.1 422.1 C 618 424.7, 604.4 424.9, 485.7 424.4 L 354.6 423.9, 343.4 418.4 C 321.1 407.5, 307.8 388.6, 304.1 362.5 C 303.1 355.2, 302.3 331.8, 302.4 310.5 C 302.5 273.3, 302.3 271.3, 298.1 257.4 C 281.9 204.1, 238.7 165.7, 182.8 154.9 C 166.7 151.8, 134.8 151.8, 120 154.9 C 59.3 167.7, 12.7 216.8, 2.6 278.6 C -0.6 297.9, -1 592.3, 2.2 595.4 C 4.9 598.2, 51.8 598.2, 54.6 595.4 C 56.1 593.9, 56.6 575.8, 56.6 524 C 56.6 479.3, 57.2 454.6, 58.3 454.6 C 59.2 454.6, 63.4 457.3, 67.7 460.5 C 89.5 477.2, 116.6 485.1, 152.1 485.1 C 196 485.1, 232 470.6, 259.7 441.5 C 265 435.9, 269.9 431.4, 270.6 431.4 C 271.3 431.4, 274.2 434.6, 277.1 438.6 C 294.3 462.7, 321.5 478.4, 352.9 482.5 C 370.8 484.8, 608.9 485, 626.8 482.7 C 644.6 480.4, 656.2 477, 669.4 470.1 C 682.6 463.2, 699.7 449.4, 706.5 439.9 C 712.6 431.6, 714.4 431.4, 719 438.8 C 727.3 452.4, 750.7 469.5, 770.7 476.8 C 791.6 484.3, 802.3 484.7, 995.4 484.1 C 1175 483.6, 1176.4 483.6, 1187.4 480 C 1232 465.8, 1259.4 426.3, 1255.9 381.5 L 1254.8 367.1, 1260.4 363.1 C 1268 357.7, 1282.1 357.5, 1289.2 362.8 L 1294.2 366.4, 1294.4 387.7 C 1294.5 406.4, 1295.1 410.3, 1299 420.6 C 1311.9 454.5, 1338.7 476, 1375.8 482.1 C 1393.4 484.9, 1934 485.6, 1939.3 482.7 C 1942.5 481, 1942.6 479.1, 1942 373.6 C 1941.3 252.4, 1941.4 253.7, 1928.4 226.4 C 1910.1 187.6, 1876.3 159.8, 1834.9 149.2 C 1820.2 145.5, 1790.2 143.7, 1776.4 145.7 M 1771.7 205.5 C 1736.1 215.7, 1711.8 241.9, 1702.4 280.3 C 1699.3 293, 1699.4 333, 1702.6 346.4 C 1711.1 382.6, 1732.8 407.6, 1765.9 419.3 L 1778.9 423.9, 1832.9 423.9 L 1886.8 423.9, 1886.8 351.7 C 1886.8 295.7, 1886.3 277.4, 1884.5 270.3 C 1876.2 237.4, 1852.5 213.1, 1820.6 204.8 C 1807.8 201.4, 1784.8 201.8, 1771.7 205.5 M 136.3 211.4 C 100.6 218.2, 75.5 239.2, 63.6 272.4 C 59.4 284, 59.2 285.9, 59.2 320.1 C 59.1 344.9, 59.8 358.4, 61.3 364.1 C 69.6 394.9, 95.1 419.1, 128 427.4 C 142.7 431.1, 173.1 429.8, 185.9 424.9 C 214.4 414.1, 236.2 390.8, 243.3 363.7 C 246.7 350.4, 246.9 291.8, 243.5 279.2 C 236.8 253.9, 218.9 231.8, 195.7 220.3 C 184.3 214.6, 182.8 214.1, 167 211.3 C 151.8 208.6, 150.8 208.6, 136.3 211.4 M 1246 210.5 C 1243.3 211.2, 1236.6 212.8, 1231.1 214 C 1203 220.2, 1172.8 237.6, 1150.3 260.7 C 1138.4 272.8, 1121.8 296.2, 1123.3 298.7 C 1123.8 299.5, 1127.3 298.9, 1131.2 297.3 C 1142.4 292.7, 1179.7 293.4, 1192.7 298.5 C 1206.8 304, 1226.4 317.9, 1235 328.5 C 1244.1 339.7, 1243.6 339.5, 1253.1 334.9 C 1265.2 329.1, 1286.2 329.3, 1297.8 335.5 L 1306.4 340, 1313.6 331.3 C 1317.5 326.6, 1323.4 320.2, 1326.5 317.2 C 1334.5 309.7, 1360.1 297.2, 1372.2 295 C 1384.3 292.8, 1409 294.2, 1420.2 297.7 C 1424.7 299.1, 1428.6 300, 1428.9 299.7 C 1430.9 297.7, 1414.3 275.2, 1400.4 261.2 C 1364.2 224.5, 1325.7 208.7, 1273.5 209.1 C 1261.2 209.2, 1248.8 209.8, 1246 210.5 M 1149.8 321.3 C 1113 326.3, 1084.1 363.8, 1089.2 400 C 1097.2 456.8, 1168.2 479.1, 1210.3 438 C 1257 392.6, 1215.4 312.5, 1149.8 321.3 M 1377.3 321.8 C 1356.9 325.4, 1336.8 341, 1326.4 361.4 C 1321 372, 1320.7 373.1, 1320.8 390.7 C 1320.9 407.4, 1321.3 409.8, 1325.7 418.9 C 1343.8 456.4, 1394.2 471.2, 1428.3 449 C 1451.8 433.8, 1461.8 414.9, 1460.7 387.5 C 1460 369.3, 1455.4 357.8, 1443.5 345.2 C 1425.5 325.9, 1401.8 317.5, 1377.3 321.8 M 1334.9 413.1 C 1334.9 419.2, 1344.6 432.6, 1353.1 438 C 1372.7 450.6, 1393 453.5, 1411.5 446.5 C 1422.1 442.4, 1429.5 437.2, 1429.5 433.8 C 1429.5 431.2, 1428 431.5, 1414.5 437.7 C 1407.2 441, 1402.8 441.8, 1392.1 441.8 C 1372 441.8, 1358.2 434.3, 1346.3 417 C 1341 409.3, 1334.9 407.2, 1334.9 413.1 M 1114.1 427.9 C 1114.1 434.9, 1133.1 446.2, 1150.6 449.6 C 1163.2 452.1, 1174.6 450.3, 1187.9 443.9 C 1199.4 438.4, 1204.4 434, 1203.2 430.8 C 1202.1 427.9, 1202.9 427.6, 1183 437.2 C 1164.6 446.1, 1145.1 443.6, 1125 429.8 C 1116.4 423.9, 1114.1 423.5, 1114.1 427.9 M 587.1 523.9 C 585.3 524.3, 581.1 526.5, 577.7 528.6 C 549.1 546.6, 556.1 590.7, 588.8 598.9 C 615.9 605.7, 642.7 580, 636 553.6 C 630.3 531.1, 609.2 518.2, 587.1 523.9 M 700.6 524.1 C 683 529.9, 673.7 543.2, 673.7 562.6 C 673.6 601.1, 723.9 614.1, 744.8 581 C 749.1 574.2, 749.7 571.8, 749.7 560.6 C 749.7 545.9, 745.3 537.5, 732.8 528.8 C 725.5 523.6, 709.3 521.3, 700.6 524.1" fill="#0B2557" fill-rule="evenodd"/>
</svg>
