<svg xmlns="http://www.w3.org/2000/svg" viewBox="0 0 2864.3 600">
  <path d="M 851.1 0.6 C 838.2 1, 837.5 1.1, 836.9 3.6 C 836.5 5, 836.4 136.2, 836.6 295.1 L 836.9 584.2, 869.9 584.2 L 902.9 584.2, 903.6 463.1 C 904.1 383.3, 904.7 340, 905.5 336.1 C 917.5 279.5, 961.6 244.8, 1021.2 245.2 C 1043.5 245.3, 1058.7 249, 1076 258.4 C 1098.3 270.6, 1116.9 292.7, 1124.2 315.6 C 1125.1 318.7, 1126.4 322.8, 1127 324.7 C 1130.2 334.7, 1130.5 347.5, 1130.5 462.6 C 1130.5 553.9, 1130.9 582.3, 1131.9 583.3 C 1132.9 584.4, 1142 584.7, 1165.5 584.7 L 1197.7 584.7, 1197.7 458 C 1197.7 379.3, 1197.3 327.8, 1196.6 322.2 C 1191.1 280.2, 1177.7 250.5, 1152.7 225.5 C 1129.5 202.3, 1110.9 191.9, 1076.1 182.7 C 1058.6 178.1, 1022.6 176.7, 1004.3 179.9 C 967.8 186.3, 938.8 200.7, 915.4 224 C 909.6 229.8, 904.5 234.3, 904.1 234 C 903.8 233.7, 903.5 181.4, 903.5 118 C 903.5 29.7, 903.2 2.2, 902.1 1.2 C 900.7 -0.2, 887.5 -0.3, 851.1 0.6 M 194 10.4 C 167.8 16.7, 161.4 18.9, 147.8 26.6 C 113.6 45.9, 91.8 76.7, 82 119.7 C 80.1 128.3, 79.5 135.8, 78.9 163.7 L 78.2 197.3, 40.5 198.2 C 19.8 198.6, 2.2 199.3, 1.4 199.6 C 0.3 200, 0 206.8, 0 228.5 C 0 255.3, 0.1 256.9, 2.2 258 C 3.7 258.8, 18.2 259.2, 41.6 259.2 L 78.8 259.2, 79.1 421.7 L 79.3 584.2, 111.8 584.2 L 144.2 584.2, 145 577.2 C 145.4 573.4, 145.8 500.3, 145.8 414.7 L 146 259.2, 202.8 259.2 C 239.7 259.2, 260.4 258.8, 261.9 258 C 264 256.9, 264.1 255.3, 264.1 228.5 C 264.1 197.4, 264.5 198.9, 257 198.5 C 255.2 198.3, 229.4 198.2, 199.8 198.1 L 146 197.8, 146 173.1 C 146 130.2, 151.5 112, 170.4 93.4 C 190.6 73.6, 220.4 68.1, 260.5 76.8 C 271 79.1, 274.1 78.2, 275 72.5 C 276.7 61.9, 280.3 29.1, 280.3 24.2 C 280.3 21.1, 279.7 18.1, 278.9 17.4 C 271.2 11.3, 211 6.3, 194 10.4 M 487.1 179.5 C 451 185.9, 430 194.1, 402.5 212.3 C 354.8 243.9, 321.2 296.3, 312.3 353.1 C 305.1 399.3, 312.3 445.5, 332.7 485.1 C 363.5 544.6, 416.1 582.7, 482.4 593.6 C 497 596, 532.7 596.3, 546.7 594.1 C 586.7 587.8, 622.4 570.7, 649 545.4 C 654.7 539.9, 660.1 535.3, 660.9 535.1 C 662.2 534.8, 662.6 539.3, 662.8 559.5 L 663.2 584.2, 696.2 584.2 L 729.2 584.2, 729.5 389.1 C 729.7 245.9, 729.4 193.6, 728.5 192.5 C 727 190.8, 671.9 190.3, 666 191.9 L 663.2 192.7, 662.8 216.7 C 662.7 229.9, 662.2 240.7, 661.8 240.7 C 661.4 240.7, 655.8 235.6, 649.4 229.4 C 613.3 194.5, 569.2 177.9, 513.5 178.3 C 502.2 178.4, 490.3 178.9, 487.1 179.5 M 1454.3 179.9 C 1413.8 186.3, 1375.7 204.3, 1347.9 230.3 C 1344.9 233.1, 1341.9 235.7, 1341.3 235.9 C 1340.7 236.1, 1335.6 241.7, 1329.9 248.3 C 1301.9 280.8, 1285.2 316.1, 1278.2 357.3 C 1275.7 371.9, 1276.4 416.2, 1279.3 429.5 C 1286.5 462.9, 1299.3 492.1, 1316.9 515.8 C 1348.8 558.7, 1389.4 584.8, 1441.3 595.7 C 1469.6 601.6, 1516 600.9, 1544.5 594.1 C 1605.1 579.5, 1653.3 540.6, 1680.7 484 C 1685.7 473.7, 1686.3 470.7, 1683.9 469.7 C 1681.4 468.8, 1632.8 468.8, 1631.5 469.8 C 1630.9 470.2, 1626.9 475.8, 1622.6 482.2 C 1610 501.1, 1596.9 513.9, 1577.8 526.2 C 1570.6 530.9, 1565.6 533.4, 1549.3 540.7 C 1544.4 542.9, 1527.5 547.2, 1513 550 C 1503.8 551.7, 1474.3 551.4, 1463 549.4 C 1421.4 542.1, 1389 522.5, 1363.8 489.5 C 1359.1 483.3, 1355.3 478, 1355.3 477.6 C 1355.3 477.3, 1353.7 474.5, 1351.7 471.3 C 1343.5 458, 1334 429.1, 1332.5 413 L 1331.8 405.2, 1515.2 404.9 L 1698.7 404.6, 1699.5 395.7 C 1701.6 372.5, 1717.7 360.6, 1746.8 360.6 C 1761.9 360.7, 1769.2 362.4, 1778.2 368.2 C 1789.1 375.2, 1792 380.4, 1793 394.8 L 1793.7 404.6, 1976.7 405.2 L 2159.7 405.8, 2159.4 411 C 2158.8 419.6, 2152.5 443.3, 2148.1 453.7 C 2125.6 507, 2082.5 540.6, 2024.6 550 C 2012.3 552, 1981.2 550.8, 1967.4 547.9 C 1923.4 538.4, 1886.7 512.9, 1864.6 476.4 C 1860 468.6, 1860.4 468.7, 1830.8 469.1 C 1809.7 469.4, 1807.6 469.7, 1807.2 471.5 C 1806.6 474.6, 1818.4 498.1, 1826.1 509.4 C 1852.2 547.7, 1886 574.2, 1926.3 588 C 1967.9 602.2, 2014.1 603.8, 2061.8 592.7 C 2067.3 591.5, 2072.7 590, 2074 589.5 C 2075.3 588.9, 2078.2 587.8, 2080.4 587.1 C 2121.3 573, 2159.1 542.1, 2182.9 503.3 C 2192.9 486.8, 2201.3 468.3, 2206 452.1 C 2207.1 448.3, 2208.5 443.9, 2209 442.3 C 2209.5 440.7, 2210.4 436.2, 2211.1 432.4 C 2211.8 428.6, 2212.9 422.3, 2213.6 418.4 C 2215.5 407.4, 2215.2 368.2, 2213.1 356.1 C 2207.6 324.9, 2198.8 301.2, 2183.3 276.5 C 2153.6 229, 2107.2 195.5, 2054.3 183.3 C 2026 176.8, 1980.4 176.3, 1955.3 182.2 C 1953.7 182.6, 1950 183.5, 1947.2 184.2 C 1914.5 191.8, 1884.8 208.8, 1853.7 237.6 C 1835.5 254.5, 1814.6 288.2, 1804.7 316.6 C 1802.8 322.3, 1800.7 327.4, 1800.1 328 C 1799.4 328.7, 1796.9 328.1, 1793.4 326.2 C 1771.7 314.6, 1744.3 312.3, 1716.9 319.6 C 1708.8 321.7, 1697.6 326.8, 1696.3 328.9 C 1694.4 331.9, 1692.3 328.9, 1688.3 317.4 C 1666.7 254.8, 1617.4 206.7, 1554.5 186.9 C 1543.4 183.4, 1537.8 182.2, 1522.1 179.9 C 1508.4 177.8, 1467.3 177.9, 1454.3 179.9 M 2437.5 180 C 2419.2 183.1, 2399.3 191.5, 2384.7 202.3 C 2375.9 208.8, 2364.5 219.5, 2362.2 223.5 C 2358.1 230.3, 2357.2 227.9, 2357.2 210.2 C 2357.2 198.9, 2356.8 193.2, 2355.8 192.3 C 2354.4 190.8, 2299 190.2, 2293.8 191.6 L 2291.2 192.3, 2291.5 388.2 L 2291.8 584.2, 2324.2 584.2 L 2356.6 584.2, 2357.3 459.1 C 2357.8 348.7, 2358.1 332.9, 2359.8 325.2 C 2369.7 280.2, 2400.2 249.9, 2440.5 245.2 C 2468.5 242, 2495 251, 2513.9 270.4 C 2529.5 286.4, 2536.5 301, 2542.1 328.7 C 2542.5 331, 2543.2 389.4, 2543.6 458.5 L 2544.3 584.2, 2576 584.5 C 2598.4 584.7, 2608.2 584.4, 2609.3 583.5 C 2610.6 582.3, 2610.9 561.9, 2610.9 458.6 C 2610.9 330.2, 2610.8 334.2, 2615.5 315.3 C 2619.2 300, 2631.1 280.7, 2644.5 268.2 C 2668.2 245.9, 2702.4 238.8, 2734.8 249.5 C 2760.3 257.9, 2782.3 280.4, 2790.9 306.7 C 2796.7 324.4, 2796.5 319.9, 2797.3 456.2 L 2798 584.2, 2830.6 584.5 C 2859.8 584.7, 2863.2 584.6, 2863.9 582.9 C 2864.3 581.8, 2864.4 520.2, 2864.2 445.9 C 2863.9 324.4, 2863.7 309.8, 2861.9 300.9 C 2859.8 290.5, 2857 279.8, 2855.4 276 C 2854.8 274.8, 2852.7 269.3, 2850.6 263.9 C 2841.5 240.2, 2822.5 217.1, 2799.7 202.2 C 2791 196.4, 2773 187.4, 2770.3 187.4 C 2769.5 187.4, 2768.4 187, 2767.8 186.4 C 2766.4 185.1, 2754.8 182.2, 2741.8 179.9 C 2728.8 177.6, 2697.8 177.6, 2686.2 179.8 C 2675.6 181.9, 2664.4 184.8, 2661.3 186.2 C 2660 186.8, 2654.5 189.3, 2649 191.8 C 2629.6 200.7, 2608.1 218.6, 2595.2 236.7 C 2592.2 240.8, 2589.5 244.1, 2589.1 244.1 C 2588.7 244.1, 2586 240.4, 2583.1 236 C 2575.7 224.6, 2563 212.1, 2549.2 202.8 C 2530.8 190.4, 2519.5 185.7, 2495.9 180.9 C 2479.9 177.7, 2453.9 177.3, 2437.5 180 M 1471.7 231 C 1444.8 234.9, 1430.1 239.7, 1410.4 251 C 1387.8 264.1, 1368.9 282.4, 1354.8 304.9 C 1347.7 316.3, 1336.7 342.6, 1336.7 348.3 L 1336.7 351.9, 1488.2 351.6 L 1639.6 351.3, 1639.4 346.6 C 1639.2 340.9, 1635.6 330.1, 1630.1 318.5 C 1609.3 274.9, 1571.9 245, 1523.8 233.7 C 1513.7 231.3, 1481.1 229.6, 1471.7 231 M 1983.1 231 C 1981.5 231.2, 1977.1 232, 1973.2 232.7 C 1931.4 240.5, 1892.2 267, 1871.6 301.5 C 1862 317.6, 1853.8 337.8, 1853.1 347.3 L 1852.8 351.3, 2003.9 351.3 L 2155.1 351.3, 2154.8 347.3 C 2153.9 337.4, 2144.5 314.9, 2135.6 301.5 C 2113.7 268.7, 2077.1 242.9, 2041 234.9 C 2037.5 234.1, 2033.1 232.9, 2031.2 232.3 C 2027.6 231.1, 1988.4 230, 1983.1 231 M 501 244.7 C 453.9 251.2, 414.2 279.7, 392.9 322.4 C 375.4 357.4, 372.6 397.6, 385.1 434.7 C 398.9 475.8, 431.7 509.5, 470.9 523.1 C 490.1 529.8, 496.3 530.8, 519.5 530.8 C 547.9 530.9, 559.7 528.4, 581.6 517.5 C 617.4 499.9, 643.2 470, 656.1 431.3 C 667.4 397.7, 664.2 353.4, 648.3 322.4 C 619.7 266.5, 562.3 236.3, 501 244.7 M 1371.5 459.3 C 1371.5 460.5, 1373.7 465.2, 1376.4 469.9 C 1379.1 474.6, 1382 479.7, 1382.9 481.3 C 1385.2 485.5, 1401.3 501.6, 1408.5 506.8 C 1420.6 515.6, 1437.1 523.3, 1456 528.9 C 1467.2 532.3, 1499.8 533.7, 1499.3 530.9 C 1499.1 530.2, 1496.5 529.3, 1493.5 528.7 C 1456 522.2, 1435.3 511.2, 1401.7 479.5 C 1382.1 461.2, 1371.5 454, 1371.5 459.3 M 2111.7 461 C 2108.3 462.9, 2101.1 468.8, 2095.6 474 C 2072.7 495.8, 2058.5 506.6, 2041.6 515.1 C 2027.9 522.1, 2022.4 523.9, 2006.3 527.2 C 1990.5 530.5, 1989.6 532.6, 2004.1 532.6 C 2050.5 532.6, 2095.1 506.9, 2116.7 467.6 C 2122.2 457.6, 2120.9 455.8, 2111.7 461" fill="#062552" fill-rule="evenodd"/>
</svg>
