<?xml version="1.0" encoding="UTF-8"?><svg id="b" xmlns="http://www.w3.org/2000/svg" width="240" height="240" viewBox="0 0 240 240"><defs><style>.d{fill:#fff;}.e{fill:#ee312f;}.f{fill:#4a0000;}</style></defs><g id="c"><rect class="e" x="0" width="240" height="240"/><path class="f" d="M240,240H0s1.53-50.88,119.99-120.01C238.51,50.88,240,0,240,0"/><path class="d" d="M192.72,106.69h-53.54c-2.12-.24-4.48-.16-7.07.33-4.89.89-10.71,4.58-11.8,12.07-.46,3.09.58,13.01,11.13,13.31,4.99.16,9.01-2.67,8.96-6.59-.07-2.9-2.5-4.97-5.27-4.97-2.38,0-2.92,1.12-4.3,2.14-1.21.84-4.92.04-4.65-2.77.32-4.12,4.35-7.74,10.24-7.61,5.23.12,10.86,2.9,10.83,11.14-.05,14.51-15.77,21.3-27.67,21.3-13.2,0-27.46-5.75-27.46-20.73,0-6.26,4.99-10.96,10.24-14.03,2.8,3.85,10.7,6.06,15.39.91,3.54-3.93,1.06-9.73-4.05-10.7-2.15-.46-5.1,0-7.19.89-1.05-.89-1.42-2.14-1.54-3.6-.53-5.42,5.03-11.59,11.49-10.12,4.64,1,4.93,6.5,10.41,6.16,2.74-.19,5.27-1.88,5.27-4.77,0-4.79-6.58-6.68-11-7.19-11.29-1.37-24.43,3.4-23.78,16.81.06,1.72,1.15,5.15,1.79,5.92-2.44.98-4.57,2.18-6.41,3.5.63-2.05,1.17-4.27,1.45-6.51.15-1.47.3-2.92.31-4.47.82-32.61-44.96-31.08-44.34-55.54.24-9,9.25-16.41,18.35-15.72,7.98.61,12.84,5.32,15.73,13.07,4.96,13.11,13.14,8.93,15.74,6.7,2.21-1.9,4.92-6.63,2.37-14.34-2.3-7.18-11.95-12.9-26.7-13.21-24.73-.51-44.82,9.03-45.42,32.67-.85,34.42,43.74,28.05,43.01,57.17-.12,4.83-2.17,9.24-5.52,12.43-3.37,3.17-12.4,8.13-21.44,2.86-5.46-3.19-7.37-7.37-10.23-14.91-5.26-13.82-13.32-10.04-16.03-7.45-4.55,4.34-5.9,13.27-3.35,18.95,5.33,11.93,19.14,15.01,30.32,15.36,8.91.31,16.95-1.07,23.84-3.86,4.47-1.84,8.41-4.31,11.8-7.34-.55,2.67-.57,5.19-.33,7.3,2.06,17.63,19.22,26.8,33.4,27.08,10.69.25,22.34-4.45,29.98-12.71l-9.88,54.77c-1.29,4.47-2.86,8.6-9.41,10.54-6.42,1.91-6.42,10.99,2.85,10.99h28.25c4.14,0,7.82-.33,8.51-4.58,1.05-5.98-9.18-6.68-7.93-12.1.79-3.24,4.77-26.86,4.77-26.86h10.73c23.46,0,47.53-4.35,51.66-37.9,3.15-25.81-15.73-33.81-32.52-33.81M202.25,135.95c-1.23,8.75-2.47,21.92-15.21,29.12-5.57,3.13-19.42,2.57-22.38,2.44l7.39-44.92c1.35-6.21,4.14-7.21,15.64-7.21s15.88,11.08,14.56,20.57"/></g></svg>