<svg width="34" height="34" viewBox="0 0 34 34" fill="none" xmlns="http://www.w3.org/2000/svg">
<path d="M14.5851 25.451C14.3992 25.451 14.2499 25.6018 14.2499 25.7895V27.4703C14.2499 27.6551 14.3992 27.8087 14.5851 27.8087C14.7681 27.8087 14.9202 27.658 14.9202 27.4703V25.7895C14.9202 25.6046 14.771 25.451 14.5851 25.451Z" fill="#909FB8"/>
<path d="M13.2388 26.6884C13.0811 26.6884 12.9543 26.8163 12.9543 26.9756V28.1502C12.9543 28.3094 13.0811 28.4374 13.2388 28.4374C13.3966 28.4374 13.5233 28.3094 13.5233 28.1502V26.9756C13.5233 26.8163 13.3966 26.6884 13.2388 26.6884Z" fill="#909FB8"/>
<path d="M16.0018 22.8202C15.7821 22.8202 15.6018 23.0022 15.6018 23.224V26.7847C15.6018 27.0065 15.7821 27.1885 16.0018 27.1885C16.2215 27.1885 16.4017 27.0065 16.4017 26.7847V23.2269C16.4017 23.0022 16.2215 22.8202 16.0018 22.8202Z" fill="#909FB8"/>
<path d="M13.2389 21.5205C13.053 21.5205 12.9037 21.6712 12.9037 21.8589V23.5682C12.9037 23.753 13.053 23.9066 13.2389 23.9066C13.4219 23.9066 13.574 23.7559 13.574 23.5682V21.8589C13.574 21.6712 13.4248 21.5205 13.2389 21.5205Z" fill="#909FB8"/>
<path d="M14.5847 22.1521C14.5593 22.1521 14.5312 22.1549 14.5086 22.1606C14.4861 22.1635 14.4636 22.172 14.4438 22.1805C14.3086 22.2374 14.2185 22.3711 14.2185 22.5218V24.5837C14.2185 24.7373 14.3143 24.8766 14.4579 24.9307C14.4664 24.9335 14.4776 24.9364 14.4917 24.942C14.5058 24.9477 14.5142 24.9477 14.5227 24.9506C14.5509 24.9563 14.5706 24.9563 14.5875 24.9563C14.7903 24.9563 14.9536 24.7913 14.9536 24.5865V22.5247C14.9536 22.3199 14.7875 22.1521 14.5847 22.1521Z" fill="#909FB8"/>
<path d="M11.9568 20.9176C11.7906 20.9176 11.6554 21.0541 11.6554 21.2219V22.5984C11.6554 22.7662 11.7906 22.9027 11.9568 22.9027C12.123 22.9027 12.2582 22.7662 12.2582 22.5984V21.2219C12.2582 21.0541 12.123 20.9176 11.9568 20.9176Z" fill="#909FB8"/>
<path d="M10.7344 20.3462C10.5851 20.3462 10.4668 20.4685 10.4668 20.6164V21.6743C10.4668 21.8222 10.5879 21.9445 10.7344 21.9445C10.8808 21.9445 11.002 21.8222 11.002 21.6743V20.6164C11.002 20.4656 10.8808 20.3462 10.7344 20.3462Z" fill="#909FB8"/>
<path d="M9.60471 19.8114C9.48359 19.8114 9.38501 19.9109 9.38501 20.0332V20.8495C9.38501 20.9717 9.48359 21.0713 9.60471 21.0713C9.72582 21.0713 9.82441 20.9717 9.82441 20.8495V20.0332C9.82441 19.9109 9.72582 19.8114 9.60471 19.8114Z" fill="#909FB8"/>
<path d="M17.5002 23.5226C17.2777 23.5226 17.1002 23.7046 17.1002 23.9264V26.2812C17.1002 26.5031 17.2805 26.6851 17.5002 26.6851C17.7199 26.6851 17.9001 26.5031 17.9001 26.2812V23.9264C17.9001 23.7046 17.7199 23.5226 17.5002 23.5226Z" fill="#909FB8"/>
<path d="M20.415 25.451C20.5981 25.451 20.7502 25.6018 20.7502 25.7895V27.4703C20.7502 27.6551 20.6009 27.8087 20.415 27.8087C20.2291 27.8087 20.0798 27.658 20.0798 27.4703V25.7895C20.0798 25.6046 20.2319 25.451 20.415 25.451Z" fill="#909FB8"/>
<path d="M21.7614 26.6884C21.9191 26.6884 22.0459 26.8163 22.0459 26.9756V28.1502C22.0459 28.3094 21.9191 28.4374 21.7614 28.4374C21.6037 28.4374 21.4769 28.3094 21.4769 28.1502V26.9756C21.4769 26.8163 21.6037 26.6884 21.7614 26.6884Z" fill="#909FB8"/>
<path d="M18.9985 22.8202C19.2182 22.8202 19.3984 23.0022 19.3984 23.224V26.7847C19.3984 27.0065 19.2182 27.1885 18.9985 27.1885C18.776 27.1885 18.5985 27.0065 18.5985 26.7847V23.2269C18.5985 23.0022 18.7788 22.8202 18.9985 22.8202Z" fill="#909FB8"/>
<path d="M21.7615 21.5205C21.9445 21.5205 22.0966 21.6712 22.0966 21.8589V23.5682C22.0966 23.753 21.9473 23.9066 21.7615 23.9066C21.5756 23.9066 21.4263 23.7559 21.4263 23.5682V21.8589C21.4263 21.6712 21.5756 21.5205 21.7615 21.5205Z" fill="#909FB8"/>
<path d="M20.4152 22.1521C20.4406 22.1521 20.4659 22.1549 20.4913 22.1606C20.5138 22.1635 20.5364 22.172 20.5561 22.1805C20.6913 22.2374 20.7814 22.3711 20.7814 22.5218V24.5837C20.7814 24.7373 20.6856 24.8766 20.542 24.9307C20.5335 24.9335 20.5223 24.9364 20.5082 24.942C20.4941 24.9477 20.4857 24.9477 20.4772 24.9506C20.449 24.9563 20.4293 24.9563 20.4124 24.9563C20.2096 24.9563 20.0463 24.7913 20.0463 24.5865V22.5247C20.0463 22.3199 20.2125 22.1521 20.4152 22.1521Z" fill="#909FB8"/>
<path d="M23.0433 20.9176C23.2095 20.9176 23.3447 21.0541 23.3447 21.2219V22.5984C23.3447 22.7662 23.2095 22.9027 23.0433 22.9027C22.8771 22.9027 22.7419 22.7662 22.7419 22.5984V21.2219C22.7419 21.0541 22.8771 20.9176 23.0433 20.9176Z" fill="#909FB8"/>
<path d="M24.2658 20.3462C24.4122 20.3462 24.5333 20.4685 24.5333 20.6164V21.6743C24.5333 21.8222 24.4122 21.9445 24.2658 21.9445C24.1165 21.9445 23.9982 21.8222 23.9982 21.6743V20.6164C23.9982 20.4656 24.1193 20.3462 24.2658 20.3462Z" fill="#909FB8"/>
<path d="M25.3954 19.8114C25.5165 19.8114 25.6151 19.9109 25.6151 20.0332V20.8495C25.6151 20.9717 25.5165 21.0713 25.3954 21.0713C25.2742 21.0713 25.1757 20.9717 25.1757 20.8495V20.0332C25.1757 19.9109 25.2742 19.8114 25.3954 19.8114Z" fill="#909FB8"/>
<path d="M12.9037 6.20001V7.33191C12.9037 7.51677 13.053 7.67034 13.2389 7.67034C13.4219 7.67034 13.574 7.51961 13.574 7.33191V6.20001C13.574 6.01515 13.4248 5.86157 13.2389 5.86157C13.0558 5.86442 12.9037 6.01515 12.9037 6.20001Z" fill="#41AD7A"/>
<path d="M12.9037 17.0128V18.1447C12.9037 18.3295 13.053 18.4831 13.2389 18.4831C13.4219 18.4831 13.574 18.3324 13.574 18.1447V17.0128C13.574 16.8279 13.4248 16.6743 13.2389 16.6743C13.0558 16.6743 12.9037 16.825 12.9037 17.0128Z" fill="#41AD7A"/>
<path d="M21.4238 6.20001V7.33191C21.4238 7.51677 21.5731 7.67034 21.759 7.67034C21.9421 7.67034 22.0942 7.51961 22.0942 7.33191V6.20001C22.0942 6.01515 21.9449 5.86157 21.759 5.86157C21.5731 5.86442 21.4238 6.01515 21.4238 6.20001Z" fill="#2C67A7"/>
<path d="M21.4238 17.0128V18.1447C21.4238 18.3295 21.5731 18.4831 21.759 18.4831C21.9421 18.4831 22.0942 18.3324 22.0942 18.1447V17.0128C22.0942 16.8279 21.9449 16.6743 21.759 16.6743C21.5731 16.6743 21.4238 16.825 21.4238 17.0128Z" fill="#2C67A7"/>
<path d="M15.6018 8.25358V16.0887C15.6018 16.3106 15.7821 16.4926 16.0018 16.4926C16.2215 16.4926 16.4017 16.3106 16.4017 16.0887V8.25358C16.4017 8.03175 16.2215 7.84973 16.0018 7.84973C15.7793 7.84973 15.6018 8.03175 15.6018 8.25358Z" fill="#909FB8"/>
<path d="M12.9037 9.66998V11.4105C12.9037 11.5954 13.053 11.7489 13.2389 11.7489C13.4219 11.7489 13.574 11.5982 13.574 11.4105V9.66998C13.574 9.48512 13.4248 9.33154 13.2389 9.33154C13.0558 9.33439 12.9037 9.48512 12.9037 9.66998Z" fill="#41AD7A"/>
<path d="M14.5086 6.80882C14.4861 6.81451 14.4636 6.8202 14.4438 6.82873C14.3058 6.88561 14.2185 7.01928 14.2185 7.17001V17.1723C14.2185 17.3259 14.3143 17.4652 14.4579 17.5193C14.4664 17.5221 14.4748 17.5249 14.4889 17.5306C14.503 17.5335 14.5114 17.5363 14.5199 17.5392C14.5481 17.5449 14.5678 17.5449 14.5847 17.5449C14.7875 17.5449 14.9508 17.3799 14.9508 17.1751V7.17285C14.9508 6.96809 14.7846 6.80029 14.5847 6.80029C14.5593 6.80029 14.534 6.80314 14.5086 6.80882Z" fill="#2AA694"/>
<path d="M11.6554 9.286V10.745C11.6554 10.9128 11.7906 11.0493 11.9568 11.0493C12.123 11.0493 12.2582 10.9128 12.2582 10.745V9.286C12.2582 9.1182 12.123 8.98169 11.9568 8.98169C11.7906 8.98169 11.6554 9.1182 11.6554 9.286Z" fill="#57B45E"/>
<path d="M10.4644 8.87907V9.96831C10.4644 10.119 10.5855 10.2385 10.7319 10.2385C10.8812 10.2385 10.9995 10.1162 10.9995 9.96831V8.87907C10.9995 8.72833 10.8784 8.60889 10.7319 8.60889C10.5855 8.60889 10.4644 8.72833 10.4644 8.87907Z" fill="#65B645"/>
<path d="M15.6018 8.25358V16.0916C15.6018 16.3134 15.7821 16.4954 16.0018 16.4954C16.2215 16.4954 16.4017 16.3134 16.4017 16.0916V8.25358C16.4017 8.03175 16.2215 7.84973 16.0018 7.84973C15.7793 7.84973 15.6018 8.03175 15.6018 8.25358Z" fill="#1EA6B6"/>
<path d="M12.9037 12.9347V14.6753C12.9037 14.8601 13.053 15.0137 13.2389 15.0137C13.4219 15.0137 13.574 14.863 13.574 14.6753V12.9347C13.574 12.7499 13.4248 12.5963 13.2389 12.5963C13.0558 12.5963 12.9037 12.747 12.9037 12.9347Z" fill="#41AD7A"/>
<path d="M11.6554 13.6002V15.0592C11.6554 15.227 11.7906 15.3635 11.9568 15.3635C12.123 15.3635 12.2582 15.227 12.2582 15.0592V13.6002C12.2582 13.4324 12.123 13.2959 11.9568 13.2959C11.7906 13.2959 11.6554 13.4324 11.6554 13.6002Z" fill="#57B45E"/>
<path d="M10.4644 14.3766V15.4658C10.4644 15.6165 10.5855 15.736 10.7319 15.736C10.8812 15.736 10.9995 15.6137 10.9995 15.4658V14.3766C10.9995 14.2287 10.8784 14.1064 10.7319 14.1064C10.5855 14.1035 10.4644 14.2258 10.4644 14.3766Z" fill="#65B645"/>
<path d="M18.5929 8.25358V16.0887C18.5929 16.3106 18.7732 16.4926 18.9929 16.4926C19.2126 16.4926 19.3928 16.3106 19.3928 16.0887V8.25358C19.3928 8.03175 19.2126 7.84973 18.9929 7.84973C18.7732 7.84973 18.5929 8.03175 18.5929 8.25358Z" fill="#909FB8"/>
<path d="M21.4238 9.66998V11.4105C21.4238 11.5954 21.5731 11.7489 21.759 11.7489C21.9421 11.7489 22.0942 11.5982 22.0942 11.4105V9.66998C22.0942 9.48512 21.9449 9.33154 21.759 9.33154C21.5731 9.33439 21.4238 9.48512 21.4238 9.66998Z" fill="#2C67A7"/>
<path d="M20.0437 7.17285V17.1723C20.0437 17.3771 20.2071 17.542 20.4099 17.542C20.4268 17.542 20.4465 17.5392 20.4746 17.5363C20.4831 17.5363 20.4915 17.5335 20.5056 17.5278C20.5197 17.5249 20.531 17.5221 20.5394 17.5164C20.6831 17.4624 20.7788 17.323 20.7788 17.1694V7.17285C20.7788 7.02212 20.6915 6.88846 20.5535 6.83158C20.531 6.82304 20.5113 6.81451 20.4887 6.81167C20.4634 6.80598 20.438 6.80314 20.4127 6.80314C20.2071 6.80029 20.0437 6.96809 20.0437 7.17285Z" fill="#257FB5"/>
<path d="M22.7388 9.286V10.745C22.7388 10.9128 22.874 11.0493 23.0401 11.0493C23.2063 11.0493 23.3415 10.9128 23.3415 10.745V9.286C23.3415 9.1182 23.2063 8.98169 23.0401 8.98169C22.874 8.98169 22.7388 9.1182 22.7388 9.286Z" fill="#38549D"/>
<path d="M23.9927 8.8791V9.96835C23.9927 10.1191 24.1138 10.2385 24.2603 10.2385C24.4039 10.2385 24.5222 10.1219 24.5278 9.97688V8.86773C24.5222 8.72268 24.4039 8.60608 24.2603 8.60608C24.1138 8.60892 23.9927 8.72837 23.9927 8.8791Z" fill="#3D3696"/>
<path d="M18.5929 8.25358V16.0916C18.5929 16.3134 18.7732 16.4954 18.9929 16.4954C19.2126 16.4954 19.3928 16.3134 19.3928 16.0916V8.25358C19.3928 8.03175 19.2126 7.84973 18.9929 7.84973C18.7732 7.84973 18.5929 8.03175 18.5929 8.25358Z" fill="#1E96C2"/>
<path d="M21.4238 12.9347V14.6753C21.4238 14.8601 21.5731 15.0137 21.759 15.0137C21.9421 15.0137 22.0942 14.863 22.0942 14.6753V12.9347C22.0942 12.7499 21.9449 12.5963 21.759 12.5963C21.5731 12.5963 21.4238 12.747 21.4238 12.9347Z" fill="#2C67A7"/>
<path d="M22.7388 13.6002V15.0592C22.7388 15.227 22.874 15.3635 23.0401 15.3635C23.2063 15.3635 23.3415 15.227 23.3415 15.0592V13.6002C23.3415 13.4324 23.2063 13.2959 23.0401 13.2959C22.874 13.2959 22.7388 13.4324 22.7388 13.6002Z" fill="#38549D"/>
<path d="M23.9927 14.3766V15.4658C23.9927 15.6165 24.1138 15.736 24.2603 15.736C24.4039 15.736 24.5222 15.6194 24.5278 15.4744V14.3624C24.5222 14.2173 24.4039 14.1007 24.2603 14.1007C24.1138 14.1036 23.9927 14.2258 23.9927 14.3766Z" fill="#3D3696"/>
<path d="M17.0945 5.40385V22.0497C17.0945 22.2715 17.2747 22.4535 17.4944 22.4535C17.7141 22.4535 17.8944 22.2715 17.8944 22.0497V5.40385C17.8944 5.18201 17.7141 5 17.4944 5C17.2747 5 17.0945 5.18201 17.0945 5.40385Z" fill="#15A3C7"/>
</svg>
