<svg width="188" height="188" viewBox="0 0 188 188" fill="none" xmlns="http://www.w3.org/2000/svg">
<rect width="188" height="188" fill="#1C2024" style="fill:#1C2024;fill:color(display-p3 0.1098 0.1255 0.1412);fill-opacity:1;"/>
<path d="M149.253 85.0857L129.413 50.9143C127.829 48.201 125.555 45.949 122.818 44.3844C120.081 42.8198 116.979 41.9975 113.821 42H74.1872C71.0259 41.9936 67.9186 42.8141 65.1777 44.3789C62.4367 45.9437 60.1588 48.1977 58.5729 50.9143L38.741 85.0857C37.1759 87.7994 36.3525 90.8725 36.3525 94C36.3525 97.1275 37.1759 100.201 38.741 102.914L58.5729 137.086C60.1569 139.799 62.4313 142.051 65.1679 143.616C67.9046 145.18 71.0073 146.003 74.1648 146H113.799C116.956 146.003 120.059 145.18 122.796 143.616C125.532 142.051 127.807 139.799 129.391 137.086L149.253 102.914C150.821 100.202 151.647 97.1282 151.647 94C151.647 90.8718 150.821 87.7982 149.253 85.0857ZM133.107 98.212H128.83C128.086 98.2124 127.355 98.4068 126.711 98.7758C126.067 99.1447 125.531 99.6752 125.158 100.314L120.088 108.983L115.048 117.653C114.676 118.293 114.481 119.019 114.481 119.759C114.481 120.498 114.676 121.224 115.048 121.865L117.186 125.542C117.695 126.505 117.81 127.626 117.506 128.67C117.201 129.715 116.502 130.603 115.554 131.147C114.606 131.691 113.483 131.85 112.42 131.59C111.357 131.331 110.436 130.673 109.85 129.754L107.712 126.077C107.341 125.435 106.806 124.901 106.162 124.531C105.517 124.16 104.785 123.966 104.04 123.967H83.9162C83.1713 123.966 82.4394 124.16 81.7945 124.531C81.1497 124.901 80.615 125.435 80.2445 126.077L78.1058 129.754C77.8401 130.256 77.4751 130.7 77.0324 131.059C76.5898 131.418 76.0788 131.684 75.53 131.841C74.9813 131.999 74.4061 132.045 73.839 131.976C73.2719 131.908 72.7247 131.726 72.2301 131.442C71.7355 131.158 71.3038 130.778 70.9608 130.324C70.6179 129.87 70.3708 129.352 70.2344 128.801C70.098 128.25 70.0751 127.677 70.1671 127.117C70.2591 126.557 70.4641 126.021 70.7697 125.542L72.9085 121.865C73.2799 121.224 73.4754 120.498 73.4754 119.759C73.4754 119.019 73.2799 118.293 72.9085 117.653L67.8682 108.983L62.828 100.314C62.4554 99.6747 61.9199 99.1438 61.2755 98.7748C60.631 98.4058 59.9001 98.2117 59.1562 98.212H54.8787C53.7542 98.212 52.6757 97.7683 51.8805 96.9784C51.0854 96.1884 50.6386 95.1171 50.6386 94C50.6386 92.8829 51.0854 91.8116 51.8805 91.0217C52.6757 90.2318 53.7542 89.788 54.8787 89.788H59.1562C59.9001 89.7884 60.631 89.5943 61.2755 89.2253C61.9199 88.8563 62.4554 88.3253 62.828 87.6857L67.8682 79.0166L72.9085 70.3475C73.2799 69.7069 73.4754 68.9807 73.4754 68.2415C73.4754 67.5022 73.2799 66.776 72.9085 66.1355L70.7697 62.4212C70.4641 61.9418 70.2591 61.4059 70.1671 60.8458C70.0751 60.2858 70.098 59.713 70.2344 59.162C70.3708 58.6109 70.6179 58.0929 70.9608 57.639C71.3038 57.1852 71.7355 56.8049 72.2301 56.5209C72.7247 56.2369 73.2719 56.0552 73.839 55.9865C74.4061 55.9179 74.9813 55.9638 75.53 56.1215C76.0788 56.2791 76.5898 56.5453 77.0324 56.9041C77.4751 57.2629 77.8401 57.7068 78.1058 58.2092L80.2445 61.8863C80.615 62.5283 81.1497 63.0616 81.7945 63.4321C82.4394 63.8026 83.1713 63.9971 83.9162 63.996H104.07C104.815 63.9971 105.547 63.8026 106.191 63.4321C106.836 63.0616 107.371 62.5283 107.742 61.8863L109.88 58.2092C110.466 57.2904 111.387 56.6322 112.45 56.3726C113.513 56.1129 114.636 56.2718 115.584 56.8161C116.532 57.3603 117.231 58.2477 117.536 59.2924C117.84 60.3372 117.725 61.4583 117.216 62.4212L115.078 66.1355C114.706 66.776 114.511 67.5022 114.511 68.2415C114.511 68.9807 114.706 69.7069 115.078 70.3475L120.088 79.0166L125.128 87.6857C125.501 88.3248 126.037 88.8553 126.681 89.2243C127.326 89.5932 128.056 89.7876 128.8 89.788H133.077C134.202 89.788 135.28 90.2318 136.076 91.0217C136.871 91.8116 137.317 92.8829 137.317 94C137.317 95.1171 136.871 96.1884 136.076 96.9784C135.28 97.7683 134.202 98.212 133.077 98.212H133.107Z" fill="#EDEEF0" style="fill:#EDEEF0;fill:color(display-p3 0.9294 0.9333 0.9412);fill-opacity:1;"/>
</svg>
