<svg width="16" height="16" viewBox="0 0 16 16" fill="none" xmlns="http://www.w3.org/2000/svg">
<rect width="16" height="16" rx="3" fill="#0075BC"/>
<path d="M6.42244 8.96113C6.27544 9.04548 6.14424 9.15695 6.02881 9.29507C5.91289 9.43318 5.8241 9.58857 5.76195 9.7622C5.6998 9.93583 5.66872 10.107 5.66872 10.2762V13H4L4.01332 10.1563C4.01332 9.75578 4.09125 9.37992 4.24713 9.02822C4.403 8.67652 4.61214 8.37168 4.87456 8.1137C5.13698 7.85572 5.44428 7.65102 5.79598 7.49958C6.14768 7.34815 6.52355 7.27268 6.92409 7.27268V5.95072C6.92409 5.55019 6.99956 5.17186 7.15099 4.81572C7.30243 4.45958 7.51157 4.14832 7.77843 3.88097C8.04528 3.61412 8.35455 3.40053 8.70625 3.24022C9.05795 3.07991 9.43383 3 9.83436 3C10.2349 3 10.6152 3.07991 10.9758 3.24022C11.3364 3.40053 11.6545 3.61412 11.9302 3.88097C12.206 4.14783 12.4265 4.45958 12.5912 4.81572C12.756 5.17186 12.8383 5.55019 12.8383 5.95072C12.8383 6.35126 12.7604 6.72713 12.6045 7.07883C12.4487 7.43052 12.2395 7.73536 11.9771 7.99334C11.7147 8.25132 11.4074 8.45603 11.0557 8.60746C10.704 8.75889 10.3281 8.83436 9.92758 8.83436H6.91027C6.7322 8.83436 6.56993 8.87678 6.42293 8.96113H6.42244ZM10.8219 4.9489C10.5817 4.70868 10.2877 4.58832 9.9409 4.58832C9.77171 4.58832 9.6114 4.6194 9.46046 4.68155C9.30903 4.7437 9.17782 4.83298 9.06634 4.9484C8.95486 5.06432 8.86608 5.1975 8.79949 5.34894C8.7329 5.50037 8.69935 5.66068 8.69935 5.82938V7.2712H9.9409C10.1101 7.2712 10.2704 7.22878 10.4213 7.14443C10.5728 7.06008 10.706 6.9486 10.8219 6.81048C10.9378 6.67237 11.0266 6.51699 11.0887 6.34336C11.1509 6.16973 11.182 5.99857 11.182 5.82938C11.182 5.48212 11.0616 5.18862 10.8214 4.9484L10.8219 4.9489Z" fill="white"/>
</svg>
