<svg width="73" height="72" viewBox="0 0 73 72" fill="none" xmlns="http://www.w3.org/2000/svg">
<path d="M36.7695 0C41.6309 6.42414e-05 46.3361 0.960527 50.7773 2.83301C55.0628 4.64561 58.9047 7.25066 62.2178 10.5518C65.5308 13.8528 68.124 17.7059 69.9365 21.9912C71.8211 26.4207 72.7695 31.1384 72.7695 36C72.7695 40.8616 71.8091 45.5673 69.9365 50.0088C68.124 54.2941 65.5188 58.1352 62.2178 61.4482C58.9167 64.7613 55.0628 67.3544 50.7773 69.167C46.3481 71.0515 41.6309 71.9999 36.7695 72C31.908 72 27.2021 71.0395 22.7607 69.167C18.4753 67.3544 14.6334 64.7493 11.3203 61.4482C8.00732 58.1472 5.41412 54.2941 3.60156 50.0088C1.71695 45.5793 0.768555 40.8616 0.768555 36C0.768555 31.1384 1.72895 26.4327 3.60156 21.9912C5.41412 17.7059 8.01933 13.8648 11.3203 10.5518C14.6214 7.23865 18.4753 4.64561 22.7607 2.83301C27.1901 0.948461 31.908 0 36.7695 0ZM41.1748 1.17676C40.9826 2.72513 39.998 4.00934 38.6416 4.64551C40.1541 5.35372 41.2109 6.89019 41.2109 8.67871C41.2109 10.4673 40.1661 12.0037 38.6416 12.7119C40.154 13.4201 41.2108 14.9567 41.2109 16.7451V16.7939C49.9615 18.8108 56.4911 26.6489 56.4912 36.0117C56.4912 46.8992 47.6689 55.7341 36.7695 55.7344C25.8699 55.7344 17.0469 46.8993 17.0469 36.0117C17.047 26.6489 23.5766 18.8108 32.3271 16.7939V16.7451C32.3273 14.9567 33.3721 13.4201 34.8965 12.7119C33.384 12.0037 32.3271 10.4673 32.3271 8.67871C32.3272 6.89019 33.372 5.35372 34.8965 4.64551C33.5401 4.00934 32.5554 2.71313 32.3633 1.17676C15.0537 3.34963 1.66895 18.1142 1.66895 36C1.66895 55.3865 17.3831 71.0996 36.7695 71.0996C56.1558 71.0993 71.8691 55.3863 71.8691 36C71.8691 18.1021 58.4844 3.33763 41.1748 1.17676ZM56.6836 53.7178C57.5479 52.7935 58.6646 52.6379 59.5889 53.5742L60.585 54.5342C60.2368 54.9783 59.8646 55.4106 59.4805 55.8428C59.0725 56.2868 58.6644 56.7187 58.2324 57.1387C55.0153 60.2957 51.1498 62.6973 46.9004 64.1738C45.664 64.5939 44.3915 64.9174 43.1191 65.2295L42.9512 65.2656L42.9873 65.4336C43.1193 66.0098 43.2748 66.9459 42.8066 67.4141C42.4705 67.7382 41.8944 67.7981 41.3662 67.7861C41.4741 67.7262 41.5703 67.6786 41.6543 67.5947C41.8463 67.4147 41.931 67.1866 41.9551 66.9346C42.0031 66.5385 41.9304 66.0582 41.8584 65.6621C41.7384 64.9539 41.3901 63.8135 40.7539 63.3213C41.246 62.9613 41.8103 62.457 42.1465 61.917L42.7109 64.125L42.8789 64.0889C44.1753 63.7888 45.484 63.4295 46.7324 62.9854C51.0899 61.4368 55.0028 58.8794 58.1719 55.5303L59.1328 54.4746L58.9766 54.3545C58.4724 53.9824 57.9076 53.9216 57.4395 54.4258C54.4265 57.6788 50.6937 60.164 46.5283 61.6885C45.9761 61.8925 45.4116 62.0612 44.8594 62.2412C45.0634 61.9411 45.2438 61.6285 45.4238 61.3164C45.7599 60.7522 46.0717 60.1758 46.3838 59.5996C46.7319 58.9514 47.0682 58.2911 47.4043 57.6309C47.2362 58.5312 46.9721 59.4321 46.624 60.2363L46.4561 60.6318L47.1768 60.332C50.7898 58.8435 54.0308 56.5867 56.6836 53.7178ZM29.7227 55.7949C29.8067 56.3349 29.951 56.8868 30.083 57.4268C30.203 57.9429 30.3468 58.4594 30.4668 58.9756L31.1992 61.8086L32.1357 61.9883L32.291 63.0693C31.5589 62.9373 30.8509 62.8047 30.1309 62.6367C30.0948 62.3487 30.0346 62.0605 29.9746 61.7725C29.8786 61.2683 29.7704 60.7522 29.6504 60.248C29.5184 59.6959 29.3861 59.1319 29.2061 58.5918C29.122 58.3517 28.9422 57.7757 28.7021 57.6436L28.5947 57.583L28.498 57.667C28.4021 57.7509 28.3305 57.8472 28.2705 57.9551C27.8144 58.7473 28.2345 60.0317 28.4746 60.8359C28.5916 61.2139 28.7219 61.6125 28.8203 62.0107L28.918 62.3848C28.414 62.4088 27.8139 62.5766 27.4658 62.9365L27.2734 63.1289L27.5381 63.2129C27.6461 63.2489 27.7543 63.2853 27.8623 63.3213C30.7551 64.2335 33.7679 64.7011 36.8047 64.7012C37.645 64.7012 38.4859 64.6658 39.3262 64.5938L38.9414 65.7939C38.2333 65.8419 37.5248 65.8662 36.8047 65.8662C32.8675 65.8662 28.9658 65.1213 25.3047 63.6328C25.2449 63.6089 25.1966 63.5855 25.1367 63.5615C25.3768 62.9494 25.677 62.4926 26.2891 62.1445C26.6492 61.9405 27.0217 61.7967 27.3818 61.5566L27.4541 61.4961V61.3887C27.2981 60.3804 26.7454 59.2999 26.9014 58.2676C27.0214 57.4994 27.3219 56.9355 28.042 56.6113C28.3061 56.4913 28.5706 56.419 28.8467 56.335C29.0986 56.251 29.3744 56.1548 29.5664 55.9629L29.7227 55.7949ZM25.4736 56.0342C25.3896 56.0582 25.3047 56.0707 25.2207 56.0947C25.1008 56.1187 24.9927 56.1425 24.8848 56.1904C24.5727 56.3225 24.3685 56.6351 24.1885 56.9111L21.2598 61.6162L20.1914 60.9561C20.6955 60.1399 21.2003 59.324 21.6924 58.5078C22.0044 57.9918 22.3159 57.4633 22.6279 56.9473C23.3361 55.783 24.0924 54.6422 24.8486 53.502L25.4736 56.0342ZM40.7061 59.168C41.1022 59.168 41.4385 59.4798 41.4385 59.876C41.4385 60.272 41.1265 60.6083 40.7305 60.6084C40.3344 60.6204 39.9981 60.3082 39.998 59.9121C39.9868 59.5407 40.2604 59.222 40.6211 59.1836L40.7061 59.168ZM5.83496 24.9443C5.70292 26.0607 5.60672 27.4532 6.95117 27.7773L7.13086 27.8252L7.15527 27.6455C7.2633 26.9013 7.58717 26.0966 8.40332 25.9404C8.73937 25.8684 9.09976 25.9403 9.42383 26.0723C9.60389 26.1443 9.78438 26.2403 9.94043 26.3604C10.4805 26.7565 10.6243 27.333 10.9004 27.9092L10.9482 28.0049H11.0566C11.1765 28.0049 11.2844 27.9934 11.4043 28.0293C11.4464 28.0413 11.4887 28.0595 11.5293 28.082L11.6328 28.1855C11.3567 28.3176 11.0923 28.4737 10.8643 28.6777C10.072 29.4099 9.17167 29.8783 8.06738 29.6982L7.89941 29.6738L7.86328 29.8418C7.51517 31.6544 7.34668 33.4912 7.34668 35.3398C7.34668 35.7839 7.34711 36.2279 7.37109 36.6719L7.41895 37.2969L7.62305 37.2363C8.17515 37.0803 8.83557 36.6125 9.30371 36.2764C9.62782 36.0243 9.95197 35.7716 10.2881 35.5195L10.4082 37.0928C10.1323 37.2127 9.84425 37.3322 9.56836 37.4521C9.26828 37.5962 8.94377 37.7406 8.67969 37.9326L8.3916 38.1367L10.5518 38.7725L10.6719 40.333C10.5521 40.2731 10.4323 40.2015 10.3125 40.1416C9.5323 39.7215 8.67965 39.2535 7.81543 39.0254L7.56348 38.9648L7.59961 39.2168C7.91171 41.5456 8.49928 43.8387 9.35156 46.0234L9.41211 46.1914L9.58008 46.1191C9.92812 45.9751 10.2763 45.8191 10.6123 45.6631C10.8284 45.5551 11.0567 45.4472 11.2607 45.3271C11.5008 45.1951 11.7282 45.0267 11.8242 44.7627C11.8362 44.7388 11.8369 44.727 11.8369 44.7031C11.9569 44.8711 12.077 45.0393 12.209 45.1953C12.3889 45.3872 12.5688 45.5671 12.7607 45.7471C12.8208 45.8071 12.9414 45.915 12.9414 45.915L9.87988 47.2354L9.95215 47.3916C10.3483 48.2679 10.7806 49.1327 11.2607 49.9609L11.3447 50.1162L12.8213 49.2168C13.1692 49.0008 13.4807 48.7244 13.5889 48.3525C13.961 48.7367 14.3813 49.0968 14.8135 49.4209L11.9688 51.1367L12.0645 51.2812C12.6286 52.1575 13.2529 53.0099 13.9131 53.8262L14.0215 53.958L14.1533 53.8496C14.4414 53.6216 14.7178 53.3941 15.0059 53.166C15.1979 53.01 15.4015 52.8533 15.6055 52.6973C15.7134 52.6133 15.8337 52.5176 15.8818 52.3857C15.9178 52.2779 15.8936 52.1577 15.8936 52.0498V51.917C16.0376 52.025 16.1939 52.1335 16.3379 52.2295C16.6259 52.4215 16.9621 52.6376 17.2861 52.8057L14.79 54.8467L14.9102 54.9785C15.4142 55.5425 15.9421 56.0826 16.4941 56.5986C16.9503 57.0308 17.4066 57.4395 17.8867 57.8477L18.043 57.9795L18.1504 57.8115C19.5549 55.6388 20.9601 53.4774 22.3525 51.3047C22.3886 51.4007 22.4125 51.5092 22.4365 51.6172C22.5085 51.9172 22.5803 52.2293 22.6523 52.5293C22.7364 52.9014 22.8207 53.2858 22.9287 53.6699C22.7848 53.6699 22.6525 53.6818 22.5205 53.7178C22.1844 53.8258 21.9681 54.1142 21.7881 54.4023L18.3789 59.7197C17.7787 59.2636 17.1902 58.7835 16.626 58.2793L16.4941 58.1709C16.2301 57.9309 15.9659 57.6912 15.7139 57.4512L15.6299 57.3672C9.59193 51.5813 6.2071 43.6587 6.20703 35.292C6.20703 33.3233 6.39838 31.3662 6.77051 29.4336L6.79492 29.3135L6.68652 29.2539C6.0864 28.9058 5.46204 28.4012 5.12598 27.7891C4.55008 26.7208 5.07879 25.7245 5.83496 24.9443ZM59.4209 39.0371C59.5529 39.2291 59.6971 39.4093 59.9131 39.5293C60.2131 39.6972 60.585 39.7334 60.9209 39.7334C61.4729 39.7574 62.0251 39.7329 62.5771 39.7568L66.959 39.9131C66.899 40.3572 66.8272 40.7896 66.7432 41.2217C66.6352 41.8338 66.5027 42.4458 66.3467 43.0459C66.2027 43.61 66.0345 44.1745 65.8545 44.7266L65.8184 44.835L65.915 44.9072C66.719 45.5915 66.8866 46.7674 66.3105 47.6436C65.9024 48.2798 65.17 48.6401 64.4258 48.5801H64.3057L64.2578 48.6885C63.9578 49.2885 63.6456 49.8885 63.3096 50.4766L62.8418 51.2812L62.9141 51.377C63.0101 51.4969 63.1659 51.6169 63.2979 51.7129C63.4659 51.8329 63.6223 51.9536 63.7783 52.0977C64.1263 52.4097 64.3661 52.77 64.4141 53.25C64.462 53.7061 64.342 54.1624 64.042 54.5225C63.9099 54.6785 63.6935 54.858 63.4775 54.918C63.5615 54.522 63.6457 54.0423 63.502 53.6943C63.37 53.3824 63.0699 53.178 62.7939 52.998C62.5779 52.854 62.3616 52.7333 62.1455 52.6133C61.8454 52.4452 61.5452 52.2774 61.2451 52.1094C60.789 51.8573 60.2727 51.7374 59.7686 51.8574V50.7529C59.7566 50.4768 59.7085 50.1402 59.6484 49.8281L61.7256 50.8848L61.8096 50.7412C62.3017 49.9131 62.7694 49.0846 63.1895 48.2324L63.25 48.1123L63.1533 48.0283C62.4091 47.3441 62.2779 46.2155 62.8301 45.3633C63.2262 44.7511 63.898 44.4031 64.6182 44.415H64.75L64.7861 44.2949C65.1102 43.2986 65.3621 42.2781 65.5781 41.2578L65.627 41.0537H65.4229C62.8661 40.8617 60.2731 40.5619 57.6924 40.6699C58.2686 40.1298 58.8567 39.5893 59.4209 39.0371ZM36.7695 17.1895C34.2247 17.1895 31.7631 17.6817 29.4463 18.666C27.2137 19.6143 25.1972 20.9708 23.4688 22.6992C21.7402 24.4278 20.3839 26.433 19.4355 28.6777C18.4512 30.9945 17.959 33.4672 17.959 36C17.959 38.5328 18.4512 41.0055 19.4355 43.3223C20.3839 45.555 21.7402 47.5722 23.4688 49.3008C25.1972 51.0292 27.2017 52.3857 29.4463 53.334C31.7631 54.3183 34.2367 54.8105 36.7695 54.8105C39.3022 54.8105 41.7752 54.3182 44.0918 53.334C46.3244 52.3857 48.3409 51.0292 50.0693 49.3008C51.7979 47.5722 53.1542 45.567 54.1025 43.3223C55.0749 41.0055 55.5791 38.5448 55.5791 36C55.5791 33.4552 55.0869 30.9945 54.1025 28.6777C53.1542 26.445 51.7979 24.4278 50.0693 22.6992C48.3409 20.9708 46.3364 19.6143 44.0918 18.666C41.7752 17.6818 39.3142 17.1895 36.7695 17.1895ZM43.2754 46.6357C43.8276 45.0392 45.4719 44.6431 46.3242 46.3477C47.3805 48.3883 45.4719 51.1366 43.1191 49.9482C42.9033 49.8404 42.7835 49.8162 42.6875 49.6123C43.8878 49.6123 44.7281 49.4801 44.9922 48.4238C44.542 48.4418 44.0715 48.4264 43.6162 48.4326L43.1553 48.46C43.0113 48.1477 43.0354 47.3438 43.2754 46.6357ZM37.6221 44.3428C37.9822 44.0547 38.5338 43.743 39.3379 44.7031L42.3994 48.4004C42.7467 48.8203 41.6193 49.0001 41.2471 48.6523L40.9824 48.4121H30.8877V47.1992H36.1211C36.0729 46.5517 35.617 46.5996 34.9932 46.5996C33.5647 46.5996 32.0516 46.6596 30.8271 46.5996C30.8992 46.4196 31.1991 46.2153 31.4512 45.8193C31.5592 45.6513 31.9202 44.9548 31.9922 44.8828C32.544 45.3748 31.9083 45.4355 33.5166 45.4355H34.8125C35.4967 45.4355 36.1448 45.4114 36.625 45.7715C37.033 46.0715 37.3212 46.5273 37.3213 47.1992H39.998C39.2179 46.2511 38.4259 45.3027 37.6338 44.3545C37.6335 44.3542 37.632 44.3527 37.6221 44.3428ZM29.915 48.4004H26.9141C26.9141 47.128 26.8302 45.507 28.7148 45.375V45.0029C28.7148 44.5979 28.5529 44.4489 28.3555 44.3037L28.1621 44.1631C28.6903 43.935 29.5552 43.4302 29.9033 42.998L29.915 48.4004ZM65.1465 45.6748C64.6904 45.3629 64.054 45.495 63.7539 45.9629C63.4418 46.431 63.574 47.0553 64.042 47.3555C64.5101 47.6676 65.1345 47.5355 65.4346 47.0674C65.7465 46.5993 65.6146 45.9749 65.1465 45.6748ZM45.1846 47.0918C45.4126 46.5516 44.6321 46.2395 44.416 46.6836C44.32 46.8996 44.3438 47.1995 44.5957 47.3076C44.947 47.4608 45.1026 47.2692 45.1582 47.1641L45.1846 47.0918ZM28.7148 46.5879C28.3548 46.6359 28.1864 46.8155 28.1504 47.1875V47.1992H28.7148V46.5879ZM34.1162 32.459C34.2603 32.567 34.3682 32.7711 34.4883 32.9512C34.6203 33.1192 34.7407 33.2629 34.8848 33.4189C35.3409 33.9111 35.4853 33.8874 35.8574 34.1875C35.8215 34.2355 35.8332 34.2237 35.7734 34.2715C35.7255 34.3194 35.7129 34.3193 35.665 34.3672C35.3889 34.6193 35.3047 34.752 35.3047 35.1602V41.9424H26.9023C26.9023 41.0661 26.8179 40.2252 27.3701 39.541C27.7062 39.121 28.0302 39.0366 28.7021 38.8926C28.7021 38.4132 28.7021 39.0125 28.7021 38.5332C28.7021 37.945 28.5344 37.8242 28.1143 37.6201C28.3784 37.3921 29.0392 37.2482 29.6514 36.624C29.7711 36.5043 29.7594 36.5036 29.9033 36.4316V40.7295H31.1152V32.459C31.2352 32.5309 31.3674 32.7824 31.4873 32.9385C31.6073 33.0945 31.7397 33.2512 31.8838 33.4072C32.3519 33.9233 32.6644 33.9954 32.8564 34.1875C32.5924 34.5356 32.3038 34.4875 32.3037 35.1475L32.2803 35.1602V40.7412H34.1162V32.459ZM37.4658 33.4912C37.682 33.7313 38.1739 34.1392 38.5459 34.2832L38.3418 34.4512C37.7416 34.8833 37.9219 35.1837 37.9219 36.0479C37.9219 37.2361 37.9814 41.4964 37.8975 41.9297L37.8857 41.9424H36.6729V32.4951L37.4658 33.4912ZM42.4229 32.4111C43.0471 32.9633 42.9636 33.395 44.0439 34.1152L44.2002 34.2471C43.432 34.6672 43.6474 34.8956 43.6475 36.0957V37.9443C43.6565 38.3496 43.6519 38.4374 43.416 38.6738L43.1074 38.9648C43.5636 39.445 43.6592 39.4211 43.6592 40.3213V41.918H40.335V39.8652C40.335 39.5531 40.5149 39.493 40.6709 39.3369L40.959 39.0488C40.6709 38.8808 40.3107 38.4489 40.3105 38.0889V35.4238C40.3105 33.8633 40.4667 34.8593 39.8545 34.2471C39.7826 34.1752 39.8304 34.2232 39.7705 34.1514C40.7067 33.7912 40.8983 33.0466 41.5225 32.4824V37.8008C41.5229 37.8611 41.7157 38.0775 41.9795 38.3652C42.1235 38.1852 42.4229 37.9801 42.4229 37.7881V37.2842C42.4228 35.3998 42.3989 34.2955 42.4229 32.4111ZM44.7998 32.459C44.8958 32.567 45.2438 33.1306 45.5918 33.4668C45.7478 33.6228 45.8685 33.7671 46.0605 33.9111C46.2406 34.0431 46.4327 34.1749 46.6367 34.2949C46.2886 34.535 46.0128 34.7875 46.0127 35.3516L46.0244 35.3398V41.918H44.7998V32.459ZM28.7148 40.1533C28.3668 40.1053 28.1627 40.3934 28.1387 40.7295H28.5342L28.7148 40.7178V40.1533ZM42.1113 39.6611C41.9435 39.829 41.6433 40.1525 41.6426 40.249V40.7295H42.543V40.249C42.5303 40.1526 42.2792 39.8649 42.1113 39.6611ZM60.1406 36.1562C60.2846 36.2762 60.4166 36.4083 60.5605 36.5283C60.6806 36.6364 60.8013 36.732 60.9453 36.792C61.1614 36.888 61.4253 36.8887 61.6533 36.8887C62.1454 36.8887 62.6375 36.8881 63.1416 36.9121C64.5221 36.9721 65.9027 37.0444 67.2832 37.0684L67.2354 38.2803L58.1602 37.9688C58.6762 37.4767 59.1924 36.9967 59.7324 36.5166C59.8644 36.3966 60.0086 36.2762 60.1406 36.1562ZM48.7734 7.16602C49.5536 7.5021 50.322 7.8627 51.0781 8.25879C51.8102 8.64283 52.5061 9.05109 53.2021 9.49512C53.9704 9.98728 54.7153 10.5035 55.4355 11.0557C56.5158 11.8839 57.5358 12.7846 58.4961 13.7568C58.8321 14.0928 59.1565 14.4525 59.4805 14.8125C60.1526 15.5807 60.8126 16.3495 61.4248 17.1777C61.7849 17.6579 62.1212 18.1501 62.4453 18.6543C65.0382 22.6276 66.6466 27.1535 67.1748 31.8711C67.2708 32.6752 67.295 33.4674 67.3311 34.2715L65.5908 34.3672C66.1307 33.6711 66.095 32.807 65.999 31.9189C65.4469 27.0454 63.6821 22.4116 60.8613 18.4023L60.0205 17.25L59.877 17.3818C59.3968 17.802 59.2406 18.3541 59.6367 18.9062C62.2295 22.5073 63.9218 26.6607 64.582 31.042C64.6661 31.6182 64.7141 32.207 64.7861 32.7832C64.5341 32.5312 64.2582 32.2908 63.9941 32.0508C63.5141 31.6067 63.0099 31.1866 62.5059 30.7666C62.2238 30.5325 61.9385 30.298 61.6504 30.0654L60.7529 29.374C61.5932 29.7221 62.4214 30.1541 63.1416 30.6582L63.4902 30.8984L63.3457 30.1299C62.6014 26.2887 61.0288 22.6632 58.748 19.4941C57.9921 18.4499 58.1727 17.3576 59.2529 16.6494L59.4209 16.541L59.2881 16.3975C58.7361 15.7494 58.1721 15.0533 57.5361 14.4893L57.4043 14.3691L57.2842 14.501C56.9241 14.9091 56.5518 15.3051 56.1797 15.7012C56.0356 15.8692 55.8432 16.0613 55.7832 16.2773C55.7592 16.3974 55.7715 16.5177 55.7715 16.6377C55.7835 16.7216 55.7949 16.794 55.7949 16.8779C55.4709 16.7219 55.1466 16.5657 54.8105 16.4697C54.5707 16.3978 54.319 16.3492 54.0791 16.3252L56.54 13.5283L56.4072 13.4082C55.5071 12.6401 54.5949 11.8843 53.6348 11.2002L53.4902 11.1035L53.3945 11.248C53.1065 11.6681 52.8059 12.0643 52.5059 12.4844C52.3739 12.6764 52.2179 12.8929 52.1699 13.1328C52.146 13.2767 52.1579 13.4088 52.1699 13.5527C52.1819 13.6485 52.1941 13.7324 52.2061 13.8281C51.582 13.5161 51.1854 13.4205 50.4893 13.3965L52.542 10.4551L52.3857 10.3594C51.9658 10.1194 51.5577 9.87963 51.1377 9.63965C50.6575 9.37556 50.165 9.11146 49.6729 8.85938L49.4814 8.7627L49.4209 8.9668C48.6887 11.4876 47.9444 14.0085 47.2002 16.5293C46.8041 15.8211 46.4078 15.1007 46.0117 14.3926C46.2517 14.3326 46.5161 14.2609 46.6602 14.1289C46.8282 13.9849 46.8885 13.7324 46.9365 13.5283C47.0445 13.1084 47.1525 12.6885 47.2725 12.2686L48.7734 7.16602ZM44.8477 21.8955C45.4719 22.4357 45.3884 22.8677 46.4688 23.5879L46.625 23.7197C45.8568 24.1399 46.0722 24.3681 46.0723 25.5684V27.417C46.0813 27.8133 46.0769 27.8988 45.8408 28.1348L45.5439 28.4492C46.0001 28.9293 46.0967 28.9056 46.0967 29.8057V31.4023H42.7715V29.3496C42.7715 29.0376 42.9514 28.9773 43.1074 28.8213L43.3955 28.5332C43.0955 28.3651 42.7471 27.9333 42.7471 27.5732V24.9082C42.7471 23.3478 42.9032 24.3436 42.291 23.7314C42.2194 23.6598 42.267 23.7077 42.207 23.6357C43.1311 23.2757 43.3235 22.5319 43.9473 21.9678V27.2852C43.9475 27.3453 44.1403 27.5617 44.4043 27.8496C44.5483 27.6697 44.8473 27.4654 44.8477 27.2734V26.7686C44.8477 24.8842 44.8237 23.7799 44.8477 21.8955ZM36.8174 21.9912C36.8774 22.0992 36.9013 22.1234 36.9854 22.2314C37.8616 23.3238 37.958 23.0959 38.3301 23.4561C38.1981 23.636 38.0421 23.6361 37.9102 23.8398C37.6821 24.176 37.7656 24.7882 37.7656 25.3164C37.7656 26.4642 37.8289 30.2174 37.7676 31.0684L37.7773 31.1982C36.7557 31.2582 28.6787 31.1862 27.4062 31.1982C26.8301 31.2102 26.9258 31.3661 26.9258 30.2617C26.9259 29.0855 27.5864 28.2579 28.7266 28.1738C28.7506 27.6578 28.8344 27.5014 28.5586 27.1895L28.1748 26.8887C28.1635 26.8887 28.1413 26.8679 28.1387 26.8652C28.7988 26.6851 29.5549 26.0607 29.915 25.7246V29.998H36.6016V21.751L36.8174 21.9912ZM39.1465 21.7637C39.2432 21.8491 39.6386 22.4475 39.9502 22.7832C40.1783 23.0113 40.6347 23.4077 41.0068 23.5518L40.7666 23.7441C40.5266 23.9242 40.3948 24.2482 40.3828 24.5723C40.2868 26.3488 40.4784 30.5617 40.3584 31.1982H39.1465V21.7637ZM44.416 29.1094C44.248 29.2774 43.9473 29.6022 43.9473 29.6982V30.1777H44.8477V29.6982C44.8357 29.6022 44.5841 29.3134 44.416 29.1094ZM28.7148 29.3975C28.3308 29.4335 28.1627 29.6138 28.1387 30.0098H28.7148V29.3975ZM9.17188 26.9854C8.73973 26.8893 8.30766 27.1772 8.22363 27.6094C8.12769 28.0415 8.41556 28.4736 8.84766 28.5576C9.2797 28.6536 9.71173 28.3656 9.7959 27.9336C9.89192 27.5015 9.60393 27.0695 9.17188 26.9854ZM14.6699 15.8213C12.8694 17.9099 11.4042 20.1784 10.2158 22.6631L10.1562 22.7959L10.2881 22.8799C10.6602 23.1319 11.3329 23.3235 11.585 22.8193C11.7409 22.4954 11.9092 22.1716 12.0771 21.8477C12.5213 20.9954 13.0252 20.1907 13.5654 19.3984C14.1896 18.4862 14.8621 17.6101 15.5703 16.7578C15.7053 17.2797 15.9005 17.7749 16.1367 18.2529L16.4102 18.7139C16.3022 18.7259 16.1942 18.7022 16.0742 18.7021C15.8943 18.6782 15.7141 18.6542 15.5342 18.7021C15.3781 18.7382 15.2575 18.8341 15.1494 18.9541C14.7773 19.3982 14.4293 19.9024 14.1172 20.3945C13.6971 21.0547 13.3012 21.727 12.9531 22.4111C12.8212 22.6751 12.6893 22.9275 12.5693 23.1914C12.4013 23.5514 12.161 23.9361 11.7891 24.1162C11.4049 24.3083 10.9603 24.2363 10.5762 24.1162C9.95208 23.9242 9.29193 23.5522 8.71582 23.2041C9.08794 22.3158 9.50772 21.4509 9.96387 20.5986C11.0562 18.582 12.3653 16.7574 13.8418 15.0049C14.1178 15.2809 14.3939 15.5453 14.6699 15.8213ZM53.6582 17.6455C54.0543 17.6455 54.3906 17.9584 54.3906 18.3545C54.4024 18.7505 54.0903 19.0859 53.6943 19.0859C53.2983 19.0978 52.9619 18.7857 52.9619 18.3896C52.9509 18.0186 53.2247 17.7007 53.585 17.6621L53.6582 17.6455ZM36.7695 13.1924C34.8609 13.1924 33.3123 14.7052 33.2402 16.5898C34.3925 16.3858 35.5692 16.2773 36.7695 16.2773C37.9817 16.2774 39.1577 16.3858 40.2979 16.5898C40.2258 14.7054 38.6779 13.1926 36.7695 13.1924ZM27.4658 6.13379C27.6939 6.758 27.7544 7.29876 27.5264 7.95898C27.3943 8.35505 27.2138 8.71497 27.0938 9.12305L27.0693 9.23145L27.1533 9.30273C27.9335 9.96289 29.062 10.4195 29.6143 11.3076C30.0224 11.9558 30.1789 12.5805 29.8428 13.3008C29.7228 13.5527 29.5541 13.7923 29.4102 14.0322C29.2781 14.2603 29.1344 14.5133 29.1104 14.7773V15.0049C28.6902 14.6568 28.2217 14.3209 27.7656 14.0088C27.3337 13.7088 26.8899 13.4086 26.458 13.0967L24.0449 11.4395L23.2168 11.9199L22.3877 11.2002C23.0119 10.8281 23.6487 10.4673 24.2969 10.1191C24.5129 10.3112 24.7534 10.4918 24.9814 10.6719C25.3894 10.9958 25.8096 11.3075 26.2295 11.6074C26.6976 11.9435 27.166 12.2803 27.6582 12.5684C27.8744 12.7005 28.3903 13.0239 28.6543 12.9639L28.7861 12.9404V12.8086C28.7981 12.6886 28.7867 12.5682 28.7627 12.4482C28.5826 11.5479 27.4419 10.8514 26.7217 10.4072C26.3331 10.1656 25.8984 9.91495 25.5225 9.63086L25.377 9.49512C25.761 9.14705 26.0977 8.63105 26.1338 8.12695V7.85059L25.8818 7.95898C25.7858 7.99499 25.6774 8.04281 25.5693 8.09082C22.7724 9.29122 20.1912 10.9116 17.8984 12.9043C17.2624 13.4563 16.6505 14.0445 16.0625 14.6445L15.5703 13.4805C16.0864 12.9764 16.6025 12.4964 17.1426 12.0283C20.1196 9.43546 23.5646 7.45406 27.2979 6.18164C27.3458 6.16963 27.4059 6.14578 27.4658 6.13379ZM47.1885 6.54199C46.8884 7.46626 46.5879 8.40259 46.2998 9.33887C46.1317 9.86704 45.9764 10.3957 45.8203 10.9238C45.4122 12.2802 44.9554 13.6246 44.4873 14.957C44.1632 14.3808 43.8797 13.7774 43.5859 13.1826L43.2754 12.5918C43.3593 12.5558 43.4434 12.5079 43.5273 12.46C43.6351 12.4001 43.743 12.3404 43.8389 12.2686C44.091 12.0645 44.2116 11.7396 44.3076 11.4395L45.9883 6.14648L47.1885 6.54199ZM36.7695 5.1377C34.8249 5.1377 33.2402 6.72234 33.2402 8.66699C33.2403 10.6116 34.8249 12.1963 36.7695 12.1963C38.7139 12.196 40.2978 10.6114 40.2979 8.66699C40.2979 6.72251 38.714 5.13796 36.7695 5.1377ZM54.8828 7.7666C55.2789 7.7546 55.6152 8.06676 55.6152 8.46289C55.6272 8.85899 55.3151 9.19531 54.9189 9.19531C54.5229 9.20726 54.1866 8.89503 54.1865 8.49902C54.1865 8.12749 54.4613 7.80866 54.8223 7.77051L54.8828 7.7666ZM36.7695 0.900391C35.5931 0.900391 34.4278 0.948319 33.2754 1.06836C33.5035 2.79694 34.9809 4.12891 36.7695 4.12891C38.5579 4.12866 40.0346 2.79678 40.2627 1.06836C39.1225 0.960338 37.9458 0.900407 36.7695 0.900391Z" fill="#205B46"/>
</svg>
