<?xml version="1.0" encoding="UTF-8"?>
<svg width="129px" height="65px" viewBox="0 0 129 65" version="1.1" xmlns="http://www.w3.org/2000/svg" xmlns:xlink="http://www.w3.org/1999/xlink">
    <title>74C3B260-9555-4B53-98EF-D201121343C5</title>
    <defs>
        <path d="M40.0368,0.3332 C39.2564,0.3472 38.6308,0.992 38.6464,1.776 L38.6464,1.776 C38.82,11.8416 35.0672,21.3732 28.0732,28.6148 L28.0732,28.6148 C21.0796,35.8568 11.6856,39.9408 1.6196,40.1168 L1.6196,40.1168 C0.836,40.1304 0.214,40.7772 0.227381166,41.5612 L0.227381166,41.5612 C0.2408,42.3376 0.876,42.956 1.6512,42.9520193 L1.6512,42.9520193 C1.6584,42.9520193 1.664,42.9520193 1.6696,42.9520193 L1.6696,42.9520193 C12.4916,42.7624 22.5944,38.3716 30.114,30.5852 L30.114,30.5852 C37.6344,22.7988 41.6684,12.5504 41.4796,1.7264 L41.4796,1.7264 C41.468,0.9556 40.8288,0.3332 40.0704,0.3332 L40.0704,0.3332 C40.0596,0.3332 40.048,0.3332 40.0368,0.3332" id="path-1"></path>
        <linearGradient x1="1.60742895%" y1="51.7675457%" x2="98.377724%" y2="48.2482817%" id="linearGradient-3">
            <stop stop-color="#00AAE4" offset="0%"></stop>
            <stop stop-color="#1C1C1A" offset="100%"></stop>
        </linearGradient>
        <path d="M55.944,0.048 C55.9368,0.048 55.9328,0.0496 55.9256,0.0496 L55.9256,0.0496 C55.1412,0.0612 54.5196,0.708 54.5308,1.4904 L54.5308,1.4904 C55.0516,31.2508 31.2656,55.8832 1.5056,56.4036 L1.5056,56.4036 C0.7216,56.4188 0.098,57.064 0.111381715,57.846 L0.111381715,57.846 C0.1244,58.6228 0.7624,59.2428 1.5376,59.2388192 L1.5376,59.2388192 L1.554,59.2388192 C32.8744,58.6916 57.9148,32.7636 57.3676,1.4404 L57.3676,1.4404 C57.3528,0.6676 56.7232,0.0496 55.9552,0.048 L55.9552,0.048 L55.944,0.048 Z" id="path-4"></path>
        <linearGradient x1="1.6374656%" y1="51.767358%" x2="98.3489748%" y2="48.2479831%" id="linearGradient-6">
            <stop stop-color="#00AAE4" offset="0%"></stop>
            <stop stop-color="#1C1C1A" offset="100%"></stop>
        </linearGradient>
        <path d="M48.07,0.192 C47.286,0.2072 46.664,0.8508 46.6796,1.6348 L46.6796,1.6348 C46.8908,13.8456 42.3344,25.4116 33.854,34.1964 L33.854,34.1964 C25.3688,42.9808 13.9704,47.9372 1.7616,48.1504 L1.7616,48.1504 C0.9772,48.1636 0.3536,48.8104 0.366594253,49.5924 L0.366594253,49.5924 C0.382,50.3712 1.0176,50.9892 1.7928,50.9852193 L1.7928,50.9852193 C1.798,50.9852193 1.804,50.9852193 1.8092,50.9852193 L1.8092,50.9852193 C14.7788,50.7588 26.882,45.4956 35.8912,36.1648 L35.8912,36.1648 C44.9012,26.8332 49.7388,14.554 49.5124,1.5852 L49.5124,1.5852 C49.4976,0.8092 48.8508,0.192 48.0904,0.192 L48.0904,0.192 C48.0836,0.192 48.0768,0.192 48.07,0.192" id="path-7"></path>
        <linearGradient x1="1.62659525%" y1="51.7673322%" x2="98.3602724%" y2="48.2480652%" id="linearGradient-9">
            <stop stop-color="#00AAE4" offset="0%"></stop>
            <stop stop-color="#1C1C1A" offset="100%"></stop>
        </linearGradient>
        <path d="M1.6984,0.0416 C0.916,0.0568 0.2908,0.702 0.30340691,1.484 L0.30340691,1.484 C0.6004,18.3348 14.444,31.8272 31.2476,31.74 L31.2476,31.74 C31.3772,31.7392 31.5028,31.7384 31.6324,31.7376 L31.6324,31.7376 C32.4164,31.7228 33.038,31.0756 33.0234589,30.2956 L33.0234589,30.2956 C33.0116,29.5168 32.376,28.8968 31.5992,28.9008 L31.5992,28.9008 C31.5956,28.9008 31.588,28.9008 31.5844,28.9012 L31.5844,28.9012 C16.1652,29.1624 3.4064,16.8476 3.138,1.436 L3.138,1.436 C3.1268,0.6656 2.5088,0.0408 1.7396,0.0408 L1.7396,0.0408 C1.726,0.0408 1.712,0.0412 1.6984,0.0416" id="path-10"></path>
        <linearGradient x1="1.59681314%" y1="51.6483095%" x2="98.3902655%" y2="48.346831%" id="linearGradient-12">
            <stop stop-color="#00AAE4" offset="0%"></stop>
            <stop stop-color="#1C1C1A" offset="100%"></stop>
        </linearGradient>
        <path d="M1.6992,0.098 L1.6828,0.098 C0.9004,0.11 0.2764,0.7564 0.287840856,1.5404 L0.287840856,1.5404 C0.5552,16.7124 6.7116,30.8728 17.63,41.4156 L17.63,41.4156 C28.3728,51.7912 42.4616,57.438 57.3712,57.3612 L57.3712,57.3612 C57.6084,57.3596 57.8488,57.3568 58.0892,57.3516 L58.0892,57.3516 C58.8512,57.3388 59.4656,56.7216 59.48,55.9664 L59.48,55.9664 L59.48,55.9112 C59.4648,55.1328 58.8292,54.5128 58.0556,54.5168 L58.0556,54.5168 C58.0484,54.5168 58.0448,54.5168 58.0376,54.5168 L58.0376,54.5168 C28.2936,55.0368 3.6432,31.2476 3.1228,1.4888 L3.1228,1.4888 C3.112,0.7148 2.478,0.098 1.7064,0.098 L1.7064,0.098 C1.704,0.098 1.7016,0.098 1.6992,0.098" id="path-13"></path>
        <linearGradient x1="1.66193475%" y1="51.6383156%" x2="98.3231442%" y2="48.3460722%" id="linearGradient-15">
            <stop stop-color="#00AAE4" offset="0%"></stop>
            <stop stop-color="#1C1C1A" offset="100%"></stop>
        </linearGradient>
        <path d="M1.5524,0.352 C1.5468,0.352 1.5416,0.352 1.536,0.352 L1.536,0.352 C0.752,0.3672 0.128,1.012 0.143313758,1.7944 L0.143313758,1.7944 C0.3696,14.7632 5.6332,26.8668 14.964,35.8772 L14.964,35.8772 C24.1472,44.7456 36.1864,49.5716 48.9324,49.5052 L48.9324,49.5052 C49.1324,49.504 49.3392,49.5032 49.5428,49.4984 L49.5428,49.4984 C50.3268,49.4852 50.9484,48.8404 50.9369597,48.0564 L50.9369597,48.0564 C50.9224,47.2792 50.2864,46.6592 49.5092,46.6632 L49.5092,46.6632 L49.4948,46.6632 C37.2892,46.8728 25.718,42.322 16.932,33.838 L16.932,33.838 C8.1476,25.3556 3.1912,13.9572 2.978,1.746 L2.978,1.746 C2.9632,0.9704 2.3336,0.352 1.56,0.352 L1.56,0.352 C1.5576,0.352 1.5552,0.352 1.5524,0.352" id="path-16"></path>
        <linearGradient x1="1.64777658%" y1="51.6400927%" x2="98.3373712%" y2="48.3458884%" id="linearGradient-18">
            <stop stop-color="#00AAE4" offset="0%"></stop>
            <stop stop-color="#1C1C1A" offset="100%"></stop>
        </linearGradient>
        <polygon id="path-19" points="0 0.264312776 31.6731635 0.264312776 31.6731635 23.39668 0 23.39668"></polygon>
    </defs>
    <g id="desktop-" stroke="none" stroke-width="1" fill="none" fill-rule="evenodd">
        <g id="home-page" transform="translate(-1157.000000, -33.000000)">
            <g id="Group-43" transform="translate(1157.000000, 33.000000)">
                <g id="Group-3" transform="translate(69.200000, 0.352400)">
                    <mask id="mask-2" fill="white">
                        <use xlink:href="#path-1"></use>
                    </mask>
                    <g id="Clip-2"></g>
                    <path d="M40.0368,0.3332 C39.2564,0.3472 38.6308,0.992 38.6464,1.776 L38.6464,1.776 C38.82,11.8416 35.0672,21.3732 28.0732,28.6148 L28.0732,28.6148 C21.0796,35.8568 11.6856,39.9408 1.6196,40.1168 L1.6196,40.1168 C0.836,40.1304 0.214,40.7772 0.227381166,41.5612 L0.227381166,41.5612 C0.2408,42.3376 0.876,42.956 1.6512,42.9520193 L1.6512,42.9520193 C1.6584,42.9520193 1.664,42.9520193 1.6696,42.9520193 L1.6696,42.9520193 C12.4916,42.7624 22.5944,38.3716 30.114,30.5852 L30.114,30.5852 C37.6344,22.7988 41.6684,12.5504 41.4796,1.7264 L41.4796,1.7264 C41.468,0.9556 40.8288,0.3332 40.0704,0.3332 L40.0704,0.3332 C40.0596,0.3332 40.048,0.3332 40.0368,0.3332" id="Fill-1" fill="url(#linearGradient-3)" mask="url(#mask-2)"></path>
                </g>
                <g id="Group-6" transform="translate(69.600000, 0.352400)">
                    <mask id="mask-5" fill="white">
                        <use xlink:href="#path-4"></use>
                    </mask>
                    <g id="Clip-5"></g>
                    <path d="M55.944,0.048 C55.9368,0.048 55.9328,0.0496 55.9256,0.0496 L55.9256,0.0496 C55.1412,0.0612 54.5196,0.708 54.5308,1.4904 L54.5308,1.4904 C55.0516,31.2508 31.2656,55.8832 1.5056,56.4036 L1.5056,56.4036 C0.7216,56.4188 0.098,57.064 0.111381715,57.846 L0.111381715,57.846 C0.1244,58.6228 0.7624,59.2428 1.5376,59.2388192 L1.5376,59.2388192 L1.554,59.2388192 C32.8744,58.6916 57.9148,32.7636 57.3676,1.4404 L57.3676,1.4404 C57.3528,0.6676 56.7232,0.0496 55.9552,0.048 L55.9552,0.048 L55.944,0.048 Z" id="Fill-4" fill="url(#linearGradient-6)" mask="url(#mask-5)"></path>
                </g>
                <g id="Group-9" transform="translate(69.200000, 0.352400)">
                    <mask id="mask-8" fill="white">
                        <use xlink:href="#path-7"></use>
                    </mask>
                    <g id="Clip-8"></g>
                    <path d="M48.07,0.192 C47.286,0.2072 46.664,0.8508 46.6796,1.6348 L46.6796,1.6348 C46.8908,13.8456 42.3344,25.4116 33.854,34.1964 L33.854,34.1964 C25.3688,42.9808 13.9704,47.9372 1.7616,48.1504 L1.7616,48.1504 C0.9772,48.1636 0.3536,48.8104 0.366594253,49.5924 L0.366594253,49.5924 C0.382,50.3712 1.0176,50.9892 1.7928,50.9852193 L1.7928,50.9852193 C1.798,50.9852193 1.804,50.9852193 1.8092,50.9852193 L1.8092,50.9852193 C14.7788,50.7588 26.882,45.4956 35.8912,36.1648 L35.8912,36.1648 C44.9012,26.8332 49.7388,14.554 49.5124,1.5852 L49.5124,1.5852 C49.4976,0.8092 48.8508,0.192 48.0904,0.192 L48.0904,0.192 C48.0836,0.192 48.0768,0.192 48.07,0.192" id="Fill-7" fill="url(#linearGradient-9)" mask="url(#mask-8)"></path>
                </g>
                <g id="Group-12" transform="translate(94.400000, 1.552400)">
                    <mask id="mask-11" fill="white">
                        <use xlink:href="#path-10"></use>
                    </mask>
                    <g id="Clip-11"></g>
                    <path d="M1.6984,0.0416 C0.916,0.0568 0.2908,0.702 0.30340691,1.484 L0.30340691,1.484 C0.6004,18.3348 14.444,31.8272 31.2476,31.74 L31.2476,31.74 C31.3772,31.7392 31.5028,31.7384 31.6324,31.7376 L31.6324,31.7376 C32.4164,31.7228 33.038,31.0756 33.0234589,30.2956 L33.0234589,30.2956 C33.0116,29.5168 32.376,28.8968 31.5992,28.9008 L31.5992,28.9008 C31.5956,28.9008 31.588,28.9008 31.5844,28.9012 L31.5844,28.9012 C16.1652,29.1624 3.4064,16.8476 3.138,1.436 L3.138,1.436 C3.1268,0.6656 2.5088,0.0408 1.7396,0.0408 L1.7396,0.0408 C1.726,0.0408 1.712,0.0412 1.6984,0.0416" id="Fill-10" fill="url(#linearGradient-12)" mask="url(#mask-11)"></path>
                </g>
                <g id="Group-15" transform="translate(68.400000, 1.952400)">
                    <mask id="mask-14" fill="white">
                        <use xlink:href="#path-13"></use>
                    </mask>
                    <g id="Clip-14"></g>
                    <path d="M1.6992,0.098 L1.6828,0.098 C0.9004,0.11 0.2764,0.7564 0.287840856,1.5404 L0.287840856,1.5404 C0.5552,16.7124 6.7116,30.8728 17.63,41.4156 L17.63,41.4156 C28.3728,51.7912 42.4616,57.438 57.3712,57.3612 L57.3712,57.3612 C57.6084,57.3596 57.8488,57.3568 58.0892,57.3516 L58.0892,57.3516 C58.8512,57.3388 59.4656,56.7216 59.48,55.9664 L59.48,55.9664 L59.48,55.9112 C59.4648,55.1328 58.8292,54.5128 58.0556,54.5168 L58.0556,54.5168 C58.0484,54.5168 58.0448,54.5168 58.0376,54.5168 L58.0376,54.5168 C28.2936,55.0368 3.6432,31.2476 3.1228,1.4888 L3.1228,1.4888 C3.112,0.7148 2.478,0.098 1.7064,0.098 L1.7064,0.098 C1.704,0.098 1.7016,0.098 1.6992,0.098" id="Fill-13" fill="url(#linearGradient-15)" mask="url(#mask-14)"></path>
                </g>
                <g id="Group-18" transform="translate(76.800000, 1.552400)">
                    <mask id="mask-17" fill="white">
                        <use xlink:href="#path-16"></use>
                    </mask>
                    <g id="Clip-17"></g>
                    <path d="M1.5524,0.352 C1.5468,0.352 1.5416,0.352 1.536,0.352 L1.536,0.352 C0.752,0.3672 0.128,1.012 0.143313758,1.7944 L0.143313758,1.7944 C0.3696,14.7632 5.6332,26.8668 14.964,35.8772 L14.964,35.8772 C24.1472,44.7456 36.1864,49.5716 48.9324,49.5052 L48.9324,49.5052 C49.1324,49.504 49.3392,49.5032 49.5428,49.4984 L49.5428,49.4984 C50.3268,49.4852 50.9484,48.8404 50.9369597,48.0564 L50.9369597,48.0564 C50.9224,47.2792 50.2864,46.6592 49.5092,46.6632 L49.5092,46.6632 L49.4948,46.6632 C37.2892,46.8728 25.718,42.322 16.932,33.838 L16.932,33.838 C8.1476,25.3556 3.1912,13.9572 2.978,1.746 L2.978,1.746 C2.9632,0.9704 2.3336,0.352 1.56,0.352 L1.56,0.352 C1.5576,0.352 1.5552,0.352 1.5524,0.352" id="Fill-16" fill="url(#linearGradient-18)" mask="url(#mask-17)"></path>
                </g>
                <g id="Group-42" transform="translate(0.000000, 16.752400)">
                    <path d="M25.93164,37.7334 L24.29804,37.7334 C23.63604,37.7334 23.08444,37.7746 22.64244,37.855 C22.20004,37.9358 21.85484,38.0614 21.60524,38.2302 C21.35404,38.3998 21.17764,38.6202 21.07564,38.8922 C20.97164,39.165 20.92044,39.4998 20.92044,39.897 L20.92044,40.1618 C20.92044,40.9566 21.09724,41.4902 21.44964,41.7622 C21.80284,42.0346 22.30444,42.1706 22.95164,42.1706 C23.46684,42.1706 23.95924,42.0974 24.43004,41.9502 C24.90164,41.803 25.40124,41.5826 25.93164,41.2878 L25.93164,37.7334 Z M27.87444,43.1642 C27.87444,43.2822 27.83084,43.3846 27.74164,43.473 C27.65324,43.5614 27.55004,43.6058 27.43324,43.6058 L26.41724,43.6058 C26.29924,43.6058 26.19644,43.5614 26.10804,43.473 C26.02004,43.3846 25.97524,43.2822 25.97524,43.1642 L25.97524,42.6782 C25.44604,42.9878 24.90164,43.245 24.34284,43.451 C23.78244,43.657 23.19484,43.7602 22.57644,43.7602 C22.10444,43.7602 21.65164,43.705 21.21804,43.5946 C20.78444,43.4842 20.40204,43.2894 20.07044,43.0094 C19.73884,42.7302 19.47524,42.3622 19.27524,41.9058 C19.07764,41.4498 18.97764,40.8758 18.97764,40.1838 L18.97764,39.919 C18.97764,39.3306 19.06924,38.8118 19.25404,38.3626 C19.43684,37.9138 19.73884,37.5386 20.15964,37.237 C20.57844,36.9354 21.12684,36.7106 21.80284,36.5634 C22.48084,36.4166 23.31204,36.3426 24.29804,36.3426 L25.93164,36.3426 L25.93164,35.4598 C25.93164,34.5326 25.75524,33.885 25.40124,33.517 C25.04844,33.1494 24.43844,32.9654 23.56924,32.9654 C22.84844,32.9654 22.21484,32.9838 21.67084,33.0206 C21.12684,33.0574 20.63364,33.0978 20.19124,33.1418 L20.08124,33.1418 C19.97884,33.1418 19.88644,33.1198 19.80564,33.0754 C19.72364,33.0314 19.68324,32.9358 19.68324,32.7886 L19.68324,32.0158 C19.68324,31.7806 19.83884,31.6406 20.14804,31.5966 C20.60404,31.523 21.10124,31.457 21.63804,31.3978 C22.17444,31.339 22.81884,31.3094 23.56924,31.3094 C25.09924,31.3094 26.20044,31.6774 26.87004,32.4134 C27.53964,33.1494 27.87444,34.165 27.87444,35.4598 L27.87444,43.1642 Z" id="Fill-19" fill="#333333"></path>
                    <path d="M36.7924,43.26892 C36.7924,43.47812 36.6604,43.60492 36.396,43.64972 C36.1748,43.67932 35.9316,43.70492 35.668,43.72692 C35.402,43.74892 35.1664,43.76052 34.96,43.76052 C34.4456,43.76052 34.0004,43.71932 33.6252,43.63892 C33.25,43.55812 32.9408,43.40692 32.6984,43.18612 C32.4552,42.96572 32.2712,42.66412 32.146,42.28092 C32.0204,41.89852 31.9588,41.40572 31.9588,40.80212 L31.9588,33.09772 L29.8172,32.85492 C29.5376,32.82532 29.3976,32.69332 29.3976,32.45732 L29.3976,31.86132 C29.3976,31.59652 29.5376,31.46412 29.8172,31.46412 L31.9588,31.46412 L31.9588,29.30052 C31.9588,29.05052 32.0908,28.90292 32.3564,28.85932 L33.504,28.68252 L33.57,28.68252 C33.6584,28.68252 33.7356,28.71572 33.8016,28.78172 C33.8676,28.84812 33.9016,28.94012 33.9016,29.05772 L33.9016,31.46412 L36.2852,31.46412 C36.4032,31.46412 36.5056,31.50812 36.5948,31.59652 C36.6828,31.68492 36.7264,31.78772 36.7264,31.90572 L36.7264,32.65612 C36.7264,32.77412 36.6828,32.87692 36.5948,32.96532 C36.5056,33.05332 36.4032,33.09772 36.2852,33.09772 L33.9016,33.09772 L33.9016,40.78332 C33.9016,41.38532 33.9888,41.76732 34.1664,41.92852 C34.3424,42.09012 34.652,42.17052 35.094,42.17052 L36.3288,42.17052 C36.6384,42.17052 36.7924,42.27572 36.7924,42.48452 L36.7924,43.26892 Z" id="Fill-21" fill="#333333"></path>
                    <path d="M48.13988,43.16404 C48.13988,43.28204 48.09628,43.38484 48.00788,43.47284 C47.91868,43.56164 47.81548,43.60564 47.69868,43.60564 L46.63908,43.60564 C46.52108,43.60564 46.41788,43.56164 46.32988,43.47284 C46.24148,43.38484 46.19708,43.28204 46.19708,43.16404 L46.19708,35.90124 C46.19708,34.79724 45.98348,34.03964 45.55708,33.62764 C45.12988,33.21564 44.55628,33.00924 43.83428,33.00924 C43.65788,33.00924 43.44868,33.02044 43.20628,33.04244 C42.96308,33.06444 42.70148,33.10164 42.42308,33.15284 C42.14228,33.20444 41.85988,33.27084 41.57308,33.35164 C41.28588,33.43244 41.02428,33.52484 40.78868,33.62764 L40.78868,43.16404 C40.78868,43.28204 40.74508,43.38484 40.65668,43.47284 C40.56748,43.56164 40.46548,43.60564 40.34748,43.60564 L39.26548,43.60564 C39.14748,43.60564 39.04788,43.56164 38.96668,43.47284 C38.88628,43.38484 38.84588,43.28204 38.84588,43.16404 L38.84588,27.44644 C38.84588,27.32884 38.88628,27.22564 38.96668,27.13724 C39.04788,27.04884 39.14748,27.00484 39.26548,27.00484 L40.36988,27.00484 C40.48668,27.00484 40.58668,27.04884 40.66708,27.13724 C40.74828,27.22564 40.78868,27.32884 40.78868,27.44644 L40.78868,31.99364 C41.31868,31.75844 41.89588,31.58524 42.52188,31.47524 C43.14788,31.36444 43.69508,31.30964 44.16588,31.30964 C44.75508,31.30964 45.29268,31.39764 45.77828,31.57444 C46.26388,31.75084 46.68268,32.02364 47.03668,32.39124 C47.38948,32.75924 47.66148,33.23364 47.85268,33.81524 C48.04428,34.39684 48.13988,35.09204 48.13988,35.90124 L48.13988,43.16404 Z" id="Fill-23" fill="#333333"></path>
                    <path d="M58.28128,33.24432 C57.97248,33.18272 57.56648,33.12832 57.06448,33.08192 C56.56288,33.03592 56.06528,33.01272 55.57128,33.01272 C54.99888,33.01272 54.52048,33.10512 54.13488,33.29072 C53.74888,33.47592 53.43968,33.74232 53.20808,34.08952 C52.97608,34.43712 52.80968,34.85832 52.70928,35.35272 C52.60888,35.84672 52.55888,36.40272 52.55888,37.02032 L52.55888,37.54592 C52.55888,38.16392 52.60888,38.71992 52.70928,39.21392 C52.80968,39.70832 52.97608,40.12552 53.20808,40.46472 C53.43968,40.80472 53.74888,41.06352 54.13488,41.24112 C54.52048,41.41872 54.99888,41.50712 55.57128,41.50712 C55.75648,41.50712 55.96488,41.50352 56.19688,41.49592 C56.42768,41.48832 56.66768,41.47272 56.91408,41.44952 C57.16168,41.42672 57.40488,41.39952 57.64448,41.36872 C57.88328,41.33752 58.09608,41.30672 58.28128,41.27552 L58.28128,33.24432 Z M60.32008,47.15992 C60.32008,47.28312 60.28088,47.38752 60.20408,47.47272 C60.12608,47.55712 60.02688,47.59992 59.90288,47.59992 L58.72208,47.59992 C58.59808,47.59992 58.49328,47.55712 58.40848,47.47272 C58.32368,47.38752 58.28128,47.28312 58.28128,47.15992 L58.28128,42.96712 C57.83288,43.04432 57.36248,43.10592 56.86808,43.15232 C56.37408,43.19872 55.94128,43.22152 55.57128,43.22152 C53.88728,43.22152 52.62448,42.73152 51.78368,41.75072 C50.94168,40.76992 50.52128,39.36872 50.52128,37.54592 L50.52128,37.02032 C50.52128,36.15552 50.62048,35.37192 50.82248,34.66912 C51.02208,33.96632 51.33208,33.36432 51.74808,32.86192 C52.16528,32.36072 52.69048,31.97392 53.32368,31.70392 C53.95728,31.43352 54.70568,31.29832 55.57128,31.29832 C56.26608,31.29832 56.99528,31.34872 57.76048,31.44912 C58.52448,31.54952 59.21568,31.67712 59.83368,31.83112 C60.04888,31.87752 60.18408,31.93552 60.23848,32.00512 C60.29208,32.07432 60.32008,32.19432 60.32008,32.36392 L60.32008,47.15992 Z" id="Fill-25" fill="#333333"></path>
                    <path d="M18.3344,27.00468 L16.496,27.00468 C16.3232,27.00468 16.176,27.12948 16.1476,27.29988 L14.0656,41.47468 L14.0572,41.47468 C13.986,41.70908 13.6464,41.70668 13.59,41.46028 L13.564,41.30108 L10.9196,30.98668 C10.838,30.64228 10.5304,30.39948 10.1768,30.39948 L8.5344,30.39948 C8.1804,30.39948 7.8732,30.64228 7.7912,30.98668 L5.1716,41.20508 L5.1216,41.46028 C5.0652,41.70668 4.7256,41.70908 4.654,41.47468 L4.6456,41.47468 L2.562,27.29988 C2.534,27.12948 2.3864,27.00468 2.214,27.00468 L0.3968,27.00468 C0.1744,27.00468 0.0076,27.20748 0.05,27.42588 L2.8276,43.29948 C2.86,43.46508 3.0056,43.58468 3.1744,43.58468 L6.2124,43.58468 C6.5684,43.58468 6.8776,43.33868 6.9568,42.99148 L9.128,33.49788 C9.186,33.24468 9.5468,33.24468 9.6048,33.49788 L11.776,42.99148 C11.8552,43.33868 12.164,43.58468 12.5204,43.58468 L15.5372,43.58468 C15.706,43.58468 15.8512,43.46548 15.8836,43.29988 L18.6812,27.42628 C18.724,27.20788 18.5568,27.00468 18.3344,27.00468" id="Fill-27" fill="#333333"></path>
                    <g id="Group-31">
                        <mask id="mask-20" fill="white">
                            <use xlink:href="#path-19"></use>
                        </mask>
                        <g id="Clip-30"></g>
                        <path d="M29.29552,4.02868 C29.18872,3.92188 29.14312,3.79588 29.15952,3.65108 C29.17472,3.50708 29.23152,3.38628 29.32712,3.29028 L29.95352,2.66428 C30.04952,2.56828 30.16792,2.51388 30.30672,2.50388 C30.44552,2.49308 30.56952,2.54108 30.67632,2.64788 L31.54352,3.51508 C31.63992,3.61148 31.68232,3.72948 31.67152,3.86908 C31.66152,4.00708 31.60712,4.12588 31.51112,4.22188 L30.88512,4.84788 C30.78912,4.94388 30.66792,5.00068 30.52432,5.01628 C30.37952,5.03228 30.25912,4.99228 30.16272,4.89588 L29.29552,4.02868 Z M27.82952,1.78188 C27.72272,1.67508 27.67072,1.55508 27.67712,1.42028 C27.68152,1.28748 27.73832,1.16628 27.84552,1.05908 L28.47192,0.43268 C28.57872,0.32588 28.69872,0.26988 28.83272,0.26468 C28.96632,0.25948 29.08792,0.30948 29.19472,0.41628 L30.06192,1.28388 C30.15832,1.37988 30.19992,1.49868 30.18992,1.63748 C30.17912,1.77668 30.12552,1.89468 30.02952,1.99028 L29.40352,2.61668 C29.29592,2.72388 29.17472,2.78068 29.04192,2.78548 C28.90712,2.79148 28.79312,2.74548 28.69672,2.64908 L27.82952,1.78188 Z M26.70992,4.02068 C26.60312,3.91388 26.55112,3.79428 26.55752,3.65988 C26.56192,3.52668 26.61872,3.40548 26.72632,3.29788 L27.35232,2.67188 C27.45912,2.56508 27.57912,2.50908 27.71312,2.50388 C27.84672,2.49828 27.96832,2.54868 28.07512,2.65548 L28.94232,3.52268 C29.03872,3.61908 29.08032,3.73788 29.07032,3.87668 C29.05952,4.01588 29.00592,4.13348 28.90992,4.22948 L28.28392,4.85548 C28.17632,4.96308 28.05512,5.02028 27.92232,5.02468 C27.78752,5.03068 27.67352,4.98468 27.57712,4.88828 L26.70992,4.02068 Z M10.26232,4.02868 C10.15552,3.92188 10.11032,3.79588 10.12632,3.65108 C10.14152,3.50708 10.19832,3.38628 10.29432,3.29028 L10.92032,2.66428 C11.01632,2.56828 11.13512,2.51388 11.27352,2.50388 C11.41272,2.49308 11.53672,2.54108 11.64352,2.64788 L12.51072,3.51508 C12.60672,3.61148 12.64912,3.72948 12.63832,3.86908 C12.62872,4.00708 12.57392,4.12588 12.47832,4.22188 L11.85192,4.84788 C11.75592,4.94388 11.63512,5.00068 11.49112,5.01628 C11.34632,5.03228 11.22592,4.99228 11.12992,4.89588 L10.26232,4.02868 Z M7.67712,4.02068 C7.56992,3.91388 7.51832,3.79428 7.52432,3.65988 C7.52872,3.52668 7.58552,3.40548 7.69312,3.29788 L8.31952,2.67188 C8.42592,2.56508 8.54632,2.50908 8.68032,2.50388 C8.81392,2.49828 8.93552,2.54868 9.04232,2.65548 L9.90952,3.52268 C10.00552,3.61908 10.04712,3.73788 10.03712,3.87668 C10.02672,4.01588 9.97272,4.13348 9.87712,4.22948 L9.25072,4.85548 C9.14352,4.96308 9.02232,5.02028 8.88912,5.02468 C8.75432,5.03068 8.64032,4.98468 8.54432,4.88828 L7.67712,4.02068 Z M11.81032,15.97068 L11.81032,9.29388 C11.50632,9.26388 11.21112,9.24068 10.92352,9.22588 C10.63632,9.21068 10.29512,9.20308 9.90152,9.20308 C8.90192,9.20308 8.11152,9.48308 7.52872,10.04348 C6.94512,10.60348 6.65392,11.40588 6.65392,12.45068 L6.65392,12.90468 C6.65392,13.97988 6.88152,14.75948 7.33632,15.24388 C7.78992,15.72868 8.51712,15.97068 9.51632,15.97068 L11.81032,15.97068 Z M-8e-05,16.56108 C-8e-05,16.42508 0.00432,16.25068 0.01112,16.03868 C0.01992,15.82708 0.03072,15.60388 0.04592,15.36868 C0.06112,15.13428 0.07992,14.89188 0.10272,14.64188 C0.12472,14.39228 0.15952,14.15348 0.20432,13.92668 C0.25032,13.63908 0.39352,13.49548 0.63632,13.49548 L1.58952,13.49548 C1.83232,13.49548 1.95272,13.65388 1.95272,13.97188 C1.92192,14.32028 1.90032,14.67988 1.88512,15.05068 C1.86952,15.42188 1.86312,15.73628 1.86312,15.99348 C1.86312,16.78068 1.94592,17.51148 2.11232,18.18508 C2.27872,18.85828 2.58472,19.43708 3.03192,19.92228 C3.47912,20.40668 4.09112,20.78868 4.87192,21.06908 C5.65032,21.34908 6.66192,21.48908 7.90272,21.48908 L8.81232,21.48908 C9.15992,21.48908 9.51632,21.48148 9.87952,21.46628 C10.24232,21.45148 10.59032,21.43588 10.92352,21.42068 C11.25712,21.40548 11.53712,21.38308 11.76432,21.35308 C11.77952,20.67148 11.78632,20.05828 11.78632,19.51308 L11.78632,17.87828 L9.40272,17.87828 C7.88712,17.87828 6.73392,17.48468 5.93912,16.69748 C5.14432,15.91028 4.74712,14.72148 4.74712,13.13188 L4.74712,12.56388 C4.74712,10.97428 5.21512,9.71788 6.15552,8.79428 C7.09352,7.87068 8.42552,7.40908 10.15192,7.40908 C10.75632,7.40908 11.34792,7.43548 11.92272,7.48828 C12.49912,7.54148 12.98232,7.62828 13.37592,7.74948 C13.49712,7.79508 13.58392,7.84428 13.63832,7.89708 C13.69072,7.95028 13.71712,8.03708 13.71712,8.15828 L13.71712,15.92508 L15.82952,15.92508 L15.82952,17.87828 L13.71712,17.87828 C13.71712,18.93748 13.71272,19.89948 13.70632,20.76228 C13.69752,21.62548 13.67992,22.26108 13.64952,22.67028 C13.64952,22.94268 13.48952,23.10188 13.17272,23.14708 C12.38552,23.26788 11.54152,23.33988 10.64032,23.36268 C9.73952,23.38548 8.83432,23.39668 7.92672,23.39668 C6.48792,23.39668 5.26552,23.24148 4.25872,22.93108 C3.25152,22.62068 2.43392,22.17388 1.80632,21.59108 C1.17752,21.00828 0.71952,20.29308 0.43192,19.44548 C0.14432,18.59708 -8e-05,17.63628 -8e-05,16.56108 L-8e-05,16.56108 Z" id="Fill-29" fill="#333333" mask="url(#mask-20)"></path>
                    </g>
                    <path d="M13.94416,17.87832 C13.73216,17.87832 13.55056,17.85192 13.39856,17.79872 C13.24776,17.74592 13.17096,17.66632 13.17096,17.56032 L13.17096,16.22032 C13.17096,16.12952 13.24776,16.05792 13.39856,16.00432 C13.55056,15.95192 13.73216,15.92512 13.94416,15.92512 L31.84416,15.92512 L31.84416,17.87832 L13.94416,17.87832 Z" id="Fill-32" fill="#333333"></path>
                    <path d="M31.70628,17.87832 C31.49428,17.87832 31.31268,17.85192 31.16188,17.79872 C31.01108,17.74592 30.93428,17.66632 30.93428,17.56032 L30.93428,16.22032 C30.93428,16.12952 31.01108,16.05792 31.16188,16.00432 C31.31268,15.95192 31.49428,15.92512 31.70628,15.92512 L36.72588,15.92512 L36.72588,17.87832 L31.70628,17.87832 Z" id="Fill-34" fill="#333333"></path>
                    <path d="M35.8172,16.22048 C35.8172,16.12928 35.8936,16.05768 36.0448,16.00448 C36.1956,15.95168 36.3768,15.92528 36.5892,15.92528 L38.1788,15.92528 C38.6184,15.92528 38.8984,15.88728 39.0196,15.81168 C39.1412,15.73608 39.2012,15.50168 39.2012,15.10768 L39.2012,13.60888 L39.2012,12.20088 C39.2012,11.73168 39.1968,11.24688 39.1904,10.74728 C39.1828,10.24728 39.1704,9.70248 39.1564,9.11208 C39.1564,8.99128 39.1904,8.88888 39.258,8.80568 C39.3256,8.72248 39.4208,8.68048 39.5424,8.68048 L40.6324,8.68048 C40.768,8.68048 40.874,8.72248 40.9496,8.80568 C41.026,8.88888 41.0632,8.99128 41.0632,9.11208 C41.0784,9.62688 41.0892,10.05848 41.0972,10.40648 C41.1048,10.75488 41.1088,11.08448 41.1088,11.39448 L41.1088,12.34848 L41.1088,13.51808 C41.1088,14.24448 41.1048,14.91848 41.0972,15.53888 C41.0892,16.16008 41.0632,16.64448 41.0184,16.99248 C40.9876,17.14408 40.9384,17.27288 40.8708,17.37848 C40.8016,17.48448 40.6772,17.57568 40.4956,17.65128 C40.3744,17.69648 40.208,17.73048 39.996,17.75328 C39.784,17.77608 39.5424,17.79848 39.2688,17.82128 C38.9968,17.84408 38.7168,17.85928 38.4292,17.86688 C38.1416,17.87448 37.8684,17.87848 37.6112,17.87848 L36.5892,17.87848 C36.3768,17.87848 36.1956,17.85208 36.0448,17.79848 C35.8936,17.74568 35.8172,17.66648 35.8172,17.56048 L35.8172,16.22048 Z" id="Fill-36" fill="#333333"></path>
                    <path d="M45.15,1.25448 C45.15,1.13328 45.1916,1.02728 45.2756,0.93648 C45.3588,0.84568 45.4604,0.80008 45.582,0.80008 L46.6948,0.80008 C46.8164,0.80008 46.9136,0.84568 46.99,0.93648 C47.0656,1.02728 47.104,1.13328 47.104,1.25448 L47.104,17.42408 C47.104,17.54528 47.0656,17.65128 46.99,17.74168 C46.9136,17.83288 46.8164,17.87848 46.6948,17.87848 L45.582,17.87848 C45.4604,17.87848 45.3588,17.83288 45.2756,17.74168 C45.1916,17.65128 45.15,17.54528 45.15,17.42408 L45.15,1.25448 Z" id="Fill-38" fill="#333333"></path>
                    <path d="M58.18304,8.32028 C57.86544,8.25708 57.44784,8.20108 56.93144,8.15348 C56.41504,8.10588 55.90344,8.08188 55.39504,8.08188 C54.80664,8.08188 54.31424,8.17708 53.91704,8.36788 C53.52024,8.55868 53.20264,8.83268 52.96384,9.18988 C52.72504,9.54748 52.55424,9.98028 52.45104,10.48908 C52.34784,10.99748 52.29624,11.56948 52.29624,12.20468 L52.29624,12.74588 C52.29624,13.38148 52.34784,13.95348 52.45104,14.46188 C52.55424,14.97028 52.72504,15.39948 52.96384,15.74828 C53.20264,16.09788 53.52024,16.36468 53.91704,16.54708 C54.31424,16.72948 54.80664,16.82068 55.39504,16.82068 C55.58544,16.82068 55.79984,16.81708 56.03864,16.80908 C56.27624,16.80148 56.52304,16.78548 56.77624,16.76148 C57.03104,16.73748 57.28144,16.70988 57.52784,16.67828 C57.77344,16.64628 57.99264,16.61468 58.18304,16.58268 L58.18304,8.32028 Z M60.28024,22.63588 C60.28024,22.76268 60.24024,22.87028 60.16104,22.95748 C60.08064,23.04468 59.97864,23.08868 59.85104,23.08868 L58.63624,23.08868 C58.50864,23.08868 58.40104,23.04468 58.31384,22.95748 C58.22664,22.87028 58.18304,22.76268 58.18304,22.63588 L58.18304,18.32228 C57.72184,18.40188 57.23784,18.46508 56.72944,18.51268 C56.22104,18.56068 55.77584,18.58468 55.39504,18.58468 C53.66264,18.58468 52.36384,18.08028 51.49864,17.07108 C50.63264,16.06228 50.19984,14.62068 50.19984,12.74588 L50.19984,12.20468 C50.19984,11.31508 50.30184,10.50908 50.50984,9.78628 C50.71504,9.06308 51.03384,8.44388 51.46184,7.92708 C51.89104,7.41108 52.43144,7.01348 53.08304,6.73548 C53.73464,6.45748 54.50464,6.31868 55.39504,6.31868 C56.10984,6.31868 56.86024,6.37028 57.64744,6.47348 C58.43304,6.57708 59.14464,6.70788 59.78024,6.86668 C60.00144,6.91428 60.14064,6.97388 60.19664,7.04508 C60.25144,7.11668 60.28024,7.24028 60.28024,7.41468 L60.28024,22.63588 Z" id="Fill-40" fill="#333333"></path>
                </g>
            </g>
        </g>
    </g>
</svg>